<?xml version="1.0" standalone="no"?>
<!DOCTYPE svg PUBLIC "-//W3C//DTD SVG 20010904//EN"
 "http://www.w3.org/TR/2001/REC-SVG-20010904/DTD/svg10.dtd">
<svg version="1.0" xmlns="http://www.w3.org/2000/svg"
 width="1920.000000pt" height="1920.000000pt" viewBox="0 0 1920.000000 1920.000000"
 preserveAspectRatio="xMidYMid meet">

<g transform="translate(0.000000,1920.000000) scale(0.100000,-0.100000)"
fill="#000000" stroke="none">
<path d="M0 9600 l0 -9600 9600 0 9600 0 0 9600 0 9600 -9600 0 -9600 0 0
-9600z m4480 8040 c0 -5 -5 -10 -11 -10 -5 0 -7 5 -4 10 3 6 8 10 11 10 2 0 4
-4 4 -10z m360 -600 c0 -5 -4 -10 -10 -10 -5 0 -10 5 -10 10 0 6 5 10 10 10 6
0 10 -4 10 -10z m8630 -15 c166 -25 298 -83 386 -171 64 -64 114 -161 114
-220 0 -27 13 -72 35 -123 36 -82 41 -106 26 -115 -5 -3 -19 19 -31 50 -16 38
-25 51 -31 42 -15 -23 -10 -51 20 -114 l29 -61 -32 -73 c-17 -41 -36 -75 -42
-77 -6 -2 -19 17 -29 42 -11 25 -22 45 -26 45 -4 0 4 -27 19 -60 24 -56 24
-62 9 -77 -15 -16 -18 -15 -36 6 -11 13 -23 32 -26 42 -4 11 -10 19 -15 19
-21 0 -20 -24 4 -77 15 -31 24 -58 21 -61 -6 -7 -5 -8 -33 51 l-22 48 -49 -58
c-26 -32 -63 -73 -82 -90 -89 -82 -118 -106 -171 -145 -32 -24 -58 -46 -58
-51 0 -4 9 -26 21 -48 20 -40 19 -77 -1 -64 -5 3 -10 2 -10 -4 0 -6 -9 -15
-20 -21 -17 -9 -22 -5 -42 41 -12 29 -23 48 -25 42 -2 -5 5 -31 16 -56 15 -35
17 -48 8 -55 -19 -16 -171 -92 -183 -92 -5 0 -20 21 -32 46 -30 60 -39 51 -12
-11 11 -26 19 -49 18 -50 -2 -1 -12 -5 -23 -9 -20 -6 -32 11 -44 59 -4 18 -28
25 -60 19 -40 -8 -45 -17 -28 -51 22 -43 30 -73 19 -73 -6 0 -18 20 -28 45 -9
25 -20 48 -24 50 -4 3 -23 0 -41 -6 -19 -6 -40 -12 -47 -15 -9 -2 -5 -18 12
-59 14 -30 20 -55 15 -55 -6 0 -20 22 -32 50 -24 55 -27 56 -89 36 -102 -32
-297 -57 -438 -56 -58 1 -108 1 -113 1 -4 -1 4 -24 18 -52 l26 -50 -38 6
c-221 39 -258 58 -275 144 -3 15 -50 61 -62 61 -4 0 0 -13 9 -30 8 -16 20 -41
25 -55 9 -24 8 -25 -11 -14 -12 6 -24 19 -26 30 -3 10 -10 16 -16 12 -5 -3 -7
-1 -4 4 12 19 -17 67 -69 115 -36 34 -62 72 -90 130 -37 79 -39 88 -39 178 0
103 15 159 68 265 93 186 281 379 512 522 378 236 831 351 1175 298z m-7735
-5 c3 -5 1 -10 -4 -10 -6 0 -11 5 -11 10 0 6 2 10 4 10 3 0 8 -4 11 -10z
m-595 -635 c0 -8 -7 -15 -15 -15 -8 0 -15 7 -15 15 0 8 7 15 15 15 8 0 15 -7
15 -15z m1720 -50 c0 -8 -4 -15 -9 -15 -13 0 -22 16 -14 24 11 11 23 6 23 -9z
m-2017 -403 l2 -82 39 -11 c21 -6 49 -15 63 -20 13 -5 22 -5 19 0 -3 5 12 4
33 -1 25 -6 38 -15 35 -22 -3 -7 -43 -27 -89 -45 -46 -18 -87 -35 -89 -40 -3
-4 -1 -48 4 -97 8 -75 7 -91 -6 -104 -13 -13 -20 -9 -62 40 -26 30 -58 67 -72
83 l-26 29 -88 -31 c-49 -17 -93 -30 -97 -29 -4 2 14 39 41 83 27 44 50 85 50
92 0 6 -28 48 -61 93 -69 90 -70 112 -5 90 20 -6 34 -15 31 -20 -5 -8 89 -40
117 -40 12 0 71 78 120 160 l22 35 8 -40 c5 -22 10 -77 11 -123z m-963 -257
c0 -8 -7 -15 -15 -15 -16 0 -20 12 -8 23 11 12 23 8 23 -8z m5997 -42 c26 -14
58 -48 101 -109 82 -116 123 -167 129 -160 3 3 0 12 -7 21 -15 18 0 20 19 3
11 -11 13 -10 8 5 -4 11 -1 17 8 17 9 0 12 6 8 17 -4 11 -3 14 5 9 7 -4 12 -3
12 3 0 9 22 31 131 134 22 21 39 27 73 27 52 0 96 -17 96 -38 0 -7 9 -16 19
-19 11 -3 22 -10 24 -17 3 -6 24 -25 48 -41 24 -17 46 -32 49 -35 3 -3 28 -23
57 -43 29 -21 62 -54 73 -73 12 -19 27 -40 34 -47 7 -6 19 -28 27 -48 14 -37
119 -163 127 -154 3 3 15 -7 28 -20 13 -14 26 -25 30 -25 4 0 22 -11 40 -25
18 -14 35 -25 38 -25 10 0 119 -90 144 -118 12 -14 22 -36 22 -49 0 -12 5 -23
10 -23 17 0 11 -36 -10 -55 -10 -9 -18 -21 -17 -24 1 -4 -31 -40 -71 -80 -40
-39 -71 -75 -68 -79 3 -5 -4 -16 -15 -26 -13 -11 -18 -23 -14 -36 4 -14 2 -20
-9 -20 -22 0 -23 -98 -1 -106 23 -9 18 -23 -10 -30 -27 -7 -34 -24 -10 -24 8
0 15 -9 15 -20 0 -11 5 -20 10 -20 6 0 10 -9 10 -20 0 -11 5 -20 10 -20 14 0
12 -27 -2 -34 -9 -4 -6 -10 10 -22 12 -9 22 -23 22 -30 0 -8 9 -19 20 -26 11
-7 20 -20 21 -28 0 -20 55 -63 82 -64 22 -1 80 -28 107 -51 14 -11 72 -33 145
-55 17 -5 66 -22 110 -39 44 -16 96 -35 115 -42 44 -15 114 -46 162 -70 20
-11 45 -19 55 -19 10 0 32 -9 50 -19 25 -16 45 -19 101 -16 39 2 84 10 100 19
17 9 72 62 123 118 169 187 386 398 408 398 42 0 26 -58 -86 -310 -36 -80 -84
-185 -108 -235 -88 -181 -104 -226 -98 -279 4 -32 2 -51 -6 -55 -7 -5 -12 -27
-13 -51 0 -28 -3 -38 -9 -29 -6 10 -9 7 -10 -11 -1 -14 -1 -28 0 -32 0 -5 -2
-8 -7 -8 -13 0 -6 -62 9 -72 10 -6 7 -7 -11 -3 -18 5 -22 4 -15 -4 9 -9 158
-51 555 -154 l135 -36 640 -4 c677 -5 707 -6 935 -57 52 -12 142 -37 200 -56
120 -40 343 -146 376 -180 13 -12 25 -19 28 -16 3 3 6 0 6 -7 0 -7 5 -9 12 -5
7 4 8 3 4 -5 -4 -6 -12 -9 -17 -6 -5 4 -9 -3 -9 -14 0 -11 -4 -23 -10 -26 -5
-3 -10 2 -10 11 0 23 -13 9 -15 -16 -2 -23 14 -26 35 -7 8 6 7 3 -3 -8 -16
-20 -15 -22 11 -37 27 -16 27 -16 28 15 1 17 6 33 12 35 6 2 8 10 5 18 -13 36
84 -29 207 -137 195 -171 398 -476 459 -691 l19 -65 -42 1 c-22 1 -44 6 -48
11 -14 19 -8 -27 13 -100 l22 -73 48 1 c54 2 53 3 83 -101 16 -57 39 -96 49
-85 4 3 7 0 7 -8 0 -8 9 -21 20 -29 11 -8 20 -18 20 -23 0 -4 19 -33 42 -64
46 -61 45 -55 39 -223 -9 -231 -26 -384 -53 -480 -14 -45 -59 -143 -70 -151
-5 -3 -13 -121 -17 -261 -5 -141 -12 -261 -15 -267 -13 -20 -24 -12 -32 22 -6
28 -8 29 -15 12 l-8 -20 -1 20 c-1 11 -4 14 -7 8 -2 -7 -10 -13 -17 -13 -9 0
-17 -29 -25 -85 -38 -275 -184 -595 -376 -825 -152 -181 -320 -315 -542 -430
-35 -17 -63 -37 -63 -43 0 -7 4 -7 12 1 7 7 17 12 23 12 5 0 2 -5 -8 -11 -18
-10 -18 -12 -1 -30 15 -17 15 -19 1 -19 -8 0 -24 -3 -34 -6 -10 -3 -8 1 6 9
26 15 15 31 -16 21 -13 -4 -15 -3 -4 4 10 7 10 11 1 17 -7 4 -16 1 -21 -6 -5
-8 -9 -11 -9 -7 0 4 -42 -8 -93 -27 -213 -77 -483 -129 -731 -141 -130 -7
-140 -6 -153 12 -14 17 -14 15 -8 -22 4 -26 2 -44 -4 -49 -20 -12 -11 -76 26
-203 32 -106 38 -121 44 -95 7 34 4 124 -6 199 l-7 51 188 7 c104 4 212 9 239
11 33 3 43 2 30 -4 -11 -5 -24 -6 -29 -3 -5 3 -6 -3 -3 -12 5 -13 1 -19 -13
-23 -20 -5 -28 -23 -10 -23 6 0 9 -3 8 -7 -1 -5 1 -23 5 -40 4 -23 12 -33 25
-33 10 0 21 -3 25 -6 10 -10 -4 -34 -20 -34 -8 0 -21 -7 -30 -15 -12 -13 -13
-18 -2 -31 10 -13 10 -17 -2 -25 -8 -5 -18 -9 -23 -9 -5 0 -6 -23 -4 -51 4
-37 2 -52 -8 -56 -19 -7 -17 -43 3 -58 15 -11 15 -18 6 -49 -10 -33 -8 -76 5
-76 2 0 11 8 18 18 12 16 15 16 41 1 15 -9 27 -22 25 -29 -2 -8 3 -10 13 -6 9
3 13 2 10 -4 -3 -6 -14 -10 -23 -11 -11 0 -12 -3 -4 -6 6 -2 12 -9 12 -15 0
-6 -7 -8 -15 -4 -15 5 -22 -9 -7 -17 4 -2 1 -2 -6 -1 -7 2 -24 -1 -38 -6 -17
-7 -23 -7 -19 0 3 6 13 10 21 10 8 0 14 4 14 9 0 4 -11 6 -25 3 -14 -2 -25 -9
-25 -14 0 -5 -6 -6 -12 -2 -9 6 -9 3 0 -9 8 -9 12 -34 11 -59 -3 -35 0 -43 14
-42 15 2 15 -1 2 -27 -8 -15 -19 -31 -25 -34 -5 -3 -10 -17 -10 -31 0 -14 4
-22 10 -19 6 3 10 -3 10 -14 0 -12 -4 -21 -8 -21 -13 0 -47 -68 -39 -76 4 -4
7 0 7 9 0 9 5 19 10 22 6 4 10 -9 10 -32 0 -28 -3 -34 -10 -23 -6 11 -12 12
-20 4 -12 -12 -3 -44 12 -44 5 0 6 -5 3 -10 -4 -6 -3 -10 2 -9 17 3 33 -1 32
-8 -3 -21 2 -33 15 -33 8 0 18 -5 22 -12 5 -7 3 -8 -5 -3 -7 4 -5 -4 4 -19 10
-14 22 -26 28 -26 6 0 8 -3 4 -6 -3 -4 -1 -12 6 -19 29 -29 67 -75 67 -80 0
-30 1 -35 11 -35 5 0 7 6 3 13 -4 7 -3 9 2 4 5 -5 9 -13 9 -17 0 -5 9 -16 20
-25 11 -9 13 -13 5 -9 -13 7 -13 5 -1 -9 7 -9 17 -14 22 -11 9 5 69 -54 69
-69 0 -10 50 -59 105 -102 47 -37 84 -71 156 -141 32 -30 60 -54 64 -54 3 0
13 -6 20 -12 7 -7 45 -33 84 -57 39 -24 68 -48 65 -53 -3 -4 0 -8 6 -8 15 0
38 -59 32 -82 -2 -10 -12 -23 -21 -27 -23 -13 -97 3 -121 24 -12 11 -20 13
-20 6 0 -12 -12 -5 -49 31 -9 10 -85 52 -167 94 -82 42 -156 82 -164 89 -8 7
-26 16 -40 20 -14 4 -65 29 -115 54 -49 26 -97 45 -106 43 -9 -1 -24 4 -33 13
-21 21 -126 32 -126 14 0 -7 -3 -9 -7 -6 -3 4 -15 -1 -26 -10 -11 -10 -17 -12
-13 -6 10 17 -26 17 -43 1 -10 -9 -15 -10 -18 -2 -2 6 -19 10 -38 8 -28 -2
-33 1 -27 14 5 15 3 15 -10 4 -17 -13 -35 -1 -24 17 3 5 -1 14 -9 21 -8 7 -15
17 -15 22 0 16 -24 35 -39 30 -9 -3 -11 0 -6 7 5 9 -6 11 -42 9 -34 -2 -48 -7
-48 -18 -1 -8 3 -18 8 -21 4 -3 -4 -14 -20 -24 -15 -10 -31 -24 -35 -31 -5 -7
-16 -10 -26 -7 -11 2 -26 -3 -35 -11 -8 -9 -18 -16 -21 -16 -3 0 -18 -12 -33
-27 -29 -27 -23 -28 32 -8 13 5 17 5 10 -2 -14 -14 -73 -33 -102 -33 -13 0
-35 -8 -50 -17 -14 -10 -34 -19 -44 -20 -11 -2 -28 -4 -39 -6 -32 -5 -36 -17
-6 -17 18 0 26 -4 23 -12 -2 -7 -14 -13 -26 -12 -17 0 -21 -5 -21 -27 0 -18
-6 -30 -19 -34 -28 -8 -65 -44 -56 -53 4 -4 10 -1 12 6 3 6 13 12 24 12 10 0
19 5 19 10 0 6 11 10 24 10 19 0 23 -4 19 -20 -3 -11 -14 -20 -25 -20 -10 0
-30 -7 -43 -16 -15 -10 -34 -14 -49 -10 -32 8 -52 -15 -37 -43 13 -23 -10 -54
-33 -45 -8 3 -23 -6 -34 -20 -11 -14 -25 -26 -31 -26 -6 0 -11 -4 -11 -10 0
-5 -9 -10 -20 -10 -13 0 -20 -7 -20 -20 0 -13 -7 -20 -20 -20 -11 0 -20 -5
-20 -11 0 -6 9 -9 20 -6 27 7 36 -10 10 -18 -20 -7 -28 -25 -10 -25 6 0 10 -4
10 -10 0 -5 -7 -10 -15 -10 -8 0 -15 -4 -15 -10 0 -5 -8 -10 -18 -10 -15 0
-18 -10 -19 -77 -1 -43 2 -80 8 -83 5 -4 4 -57 -3 -139 -7 -76 -15 -125 -19
-114 -5 12 -8 6 -8 -20 -1 -20 3 -45 8 -55 23 -45 41 -94 41 -111 0 -10 7 -21
15 -25 8 -3 15 -16 15 -28 0 -36 11 -68 24 -68 6 0 12 -10 12 -23 3 -36 8 -49
27 -70 11 -10 17 -27 14 -38 -3 -10 -2 -19 3 -19 4 0 5 -11 3 -24 -3 -13 1
-27 8 -31 9 -6 11 -3 6 11 -6 15 -3 14 13 -5 11 -13 20 -33 20 -45 0 -13 3
-26 7 -30 10 -10 3 -100 -8 -104 -5 -2 -9 -10 -9 -18 0 -8 -6 -14 -12 -14 -23
0 -39 16 -32 33 6 17 -3 21 -38 18 -10 -1 -18 2 -18 8 0 17 -32 42 -47 36 -11
-3 -13 -1 -9 10 4 11 -3 19 -19 25 -14 5 -29 20 -34 33 -10 25 -29 37 -68 44
-22 3 -23 0 -23 -57 0 -33 -4 -60 -9 -60 -4 0 -11 -33 -15 -72 -10 -104 -12
-108 -51 -108 -24 0 -38 -6 -45 -20 -11 -20 -36 -27 -42 -11 -2 4 -34 11 -73
14 -38 4 -64 4 -57 1 6 -3 12 -12 12 -20 0 -11 -9 -14 -32 -12 -20 2 -32 8
-30 16 1 6 -7 12 -17 12 -11 0 -22 -6 -25 -12 -5 -10 -7 -10 -12 0 -3 6 -21
12 -39 12 -43 0 -65 9 -65 26 0 27 -28 14 -35 -16 -7 -30 -25 -42 -25 -16 0 8
-11 17 -25 20 -14 4 -25 11 -25 16 0 6 -7 10 -15 10 -8 0 -15 -7 -15 -15 0 -8
-7 -15 -15 -15 -18 0 -37 -34 -29 -53 3 -9 -2 -18 -14 -21 -10 -4 -25 -18 -32
-31 -7 -14 -18 -25 -24 -25 -6 0 -5 5 2 12 17 17 15 33 -3 18 -8 -6 -13 -22
-12 -33 2 -18 -3 -22 -25 -20 -16 1 -28 -2 -28 -8 0 -5 5 -9 12 -9 6 0 9 -3 5
-6 -3 -4 -17 3 -31 14 -14 10 -22 22 -18 26 3 4 -2 4 -12 0 -14 -5 -17 -4 -12
4 5 8 -1 12 -16 11 -22 0 -22 -1 -4 -12 180 -116 330 -280 399 -438 48 -109
85 -321 59 -338 -22 -15 -11 -105 34 -267 39 -144 45 -176 37 -213 -4 -25 -13
-46 -18 -48 -11 -3 -15 10 -55 175 -13 51 -26 90 -30 85 -4 -4 -17 -34 -30
-66 l-22 -57 40 -148 41 -147 -40 -67 c-23 -37 -47 -72 -55 -79 -8 -6 -14 -19
-14 -28 -1 -25 -97 -129 -103 -111 -3 8 -18 63 -33 123 -16 59 -32 107 -36
107 -20 0 -16 -49 13 -147 17 -59 31 -117 30 -128 0 -25 -75 -90 -79 -69 -2 8
-9 14 -16 14 -8 0 -25 39 -41 95 -16 52 -32 95 -36 95 -4 0 -14 -9 -22 -21
-13 -18 -11 -34 20 -150 28 -105 32 -133 22 -145 -7 -8 -16 -11 -20 -7 -4 4
-21 58 -38 118 -18 61 -33 113 -34 117 -2 8 -20 -6 -95 -72 -17 -15 -30 -34
-28 -42 3 -7 19 -66 36 -130 18 -65 35 -116 39 -113 15 9 5 -41 -11 -59 -10
-11 -18 -23 -18 -28 0 -4 -3 -7 -7 -7 -22 4 -25 -3 -7 -17 13 -11 15 -17 6
-20 -6 -3 -9 -11 -6 -16 4 -6 2 -8 -3 -5 -6 4 -19 -5 -28 -19 -14 -22 -15 -28
-4 -35 11 -7 11 -9 -1 -9 -9 0 -16 -9 -17 -21 -3 -31 -37 -94 -51 -92 -6 2
-14 -8 -18 -22 -3 -14 -10 -25 -16 -25 -5 0 -7 -4 -4 -9 4 -5 2 -11 -4 -13
-10 -3 -192 -182 -226 -222 -12 -14 -19 -28 -16 -31 3 -3 0 -5 -7 -5 -7 0 -9
-4 -6 -10 3 -5 2 -10 -3 -10 -5 0 -17 -18 -27 -40 -10 -22 -22 -40 -27 -40 -5
0 -7 -3 -4 -8 2 -4 -11 -21 -31 -37 -19 -17 -45 -40 -57 -52 -14 -14 -36 -23
-54 -23 -17 0 -33 -4 -36 -9 -3 -5 -53 -7 -111 -4 -86 4 -108 2 -121 -11 -8
-9 -24 -16 -35 -16 -11 0 -28 -4 -38 -9 -9 -5 -35 -12 -57 -14 -21 -3 -46 -8
-54 -11 -8 -3 -44 -10 -80 -15 -36 -5 -116 -17 -178 -26 -85 -12 -128 -13
-175 -6 -34 5 -105 16 -158 24 -113 18 -213 43 -252 63 -15 9 -36 12 -47 9
-12 -4 -20 -2 -20 5 0 7 -7 10 -15 6 -17 -6 -85 23 -85 36 0 5 -19 6 -42 3
-34 -4 -39 -2 -25 6 10 6 21 8 24 5 4 -3 11 -1 18 4 6 5 42 14 79 19 38 5 70
12 72 14 3 2 -10 57 -28 121 l-32 116 -90 -6 c-50 -4 -94 -9 -98 -13 -4 -4 6
-56 22 -116 35 -128 34 -125 15 -125 -13 0 -20 18 -68 185 l-14 50 -119 -2
c-160 -3 -490 15 -590 32 -45 8 -103 17 -130 21 -27 3 -82 15 -123 25 -41 11
-77 17 -79 14 -3 -3 8 -53 25 -113 17 -59 29 -109 27 -111 -2 -2 -21 1 -41 7
-21 6 -76 23 -123 37 -110 33 -318 135 -362 177 -29 28 -37 46 -52 116 -10 45
-16 89 -13 96 3 8 0 19 -6 26 -9 10 -9 11 3 5 8 -5 -7 12 -35 38 -48 45 -65
55 -65 40 0 -5 15 -61 34 -125 18 -65 30 -118 27 -118 -3 0 -18 11 -32 24 -21
18 -34 52 -63 156 -34 126 -39 136 -90 194 -73 84 -117 155 -159 261 -69 171
-80 312 -41 501 4 22 2 33 -8 36 -10 4 -12 -6 -10 -46 2 -40 0 -47 -8 -33 -6
9 -8 22 -5 27 4 6 -10 10 -34 10 -29 0 -41 4 -44 18 -2 12 -8 7 -22 -20 -20
-40 -44 -50 -46 -20 -1 16 -2 16 -6 0 -2 -10 -13 -18 -23 -18 -12 0 -17 -5
-14 -14 9 -23 -36 -27 -67 -5 -15 10 -38 19 -52 19 -13 0 -30 7 -37 15 -16 19
-35 19 -65 -1 -18 -12 -28 -13 -44 -4 -12 6 -21 17 -21 25 0 11 -12 15 -40 15
-29 0 -40 -4 -40 -15 0 -22 -97 -21 -122 1 -10 10 -40 19 -68 22 -47 4 -50 6
-50 32 0 22 -5 29 -29 33 -16 3 -36 13 -44 22 -9 8 -20 15 -26 15 -11 0 -22
34 -19 60 4 42 -3 60 -22 60 -15 0 -20 7 -20 25 0 14 -4 25 -10 25 -5 0 -10
-20 -10 -45 0 -48 -17 -60 -46 -31 -17 18 -18 63 -1 69 8 4 4 12 -12 25 -16
13 -20 21 -12 26 14 9 15 56 1 56 -5 0 -10 -7 -10 -15 0 -8 -7 -15 -16 -15
-13 0 -15 8 -12 40 2 27 0 40 -9 40 -6 0 -16 6 -20 13 -4 8 -20 22 -35 31 -23
15 -26 21 -17 37 10 20 5 39 -12 39 -6 0 -7 -9 -4 -22 6 -17 4 -20 -10 -14
-12 4 -16 2 -12 -7 7 -19 -8 -43 -17 -28 -4 6 -2 11 5 11 7 0 4 6 -7 14 -10 8
-16 18 -11 22 4 4 7 1 7 -7 1 -8 7 -3 15 11 18 32 19 46 1 31 -11 -9 -15 -8
-20 5 -8 21 -2 27 44 43 55 20 80 34 80 43 0 5 -9 4 -19 -2 -13 -6 -20 -7 -23
0 -2 6 -28 2 -66 -11 -34 -11 -62 -22 -62 -22 0 -2 28 -144 34 -176 3 -13 3
-27 1 -31 -3 -4 -44 18 -92 50 -49 32 -92 55 -97 52 -5 -3 -6 -1 -3 4 3 6 2
16 -3 23 -6 11 -19 9 -68 -10 -33 -13 -59 -26 -57 -30 6 -9 -76 -40 -86 -33
-15 9 -10 21 36 87 25 36 45 68 45 72 0 11 -32 34 -47 35 -20 0 -15 -20 5 -21
15 -1 16 -2 0 -6 -10 -2 -15 -10 -11 -19 3 -9 -2 -14 -16 -14 -12 0 -25 -8
-28 -17 -8 -21 -42 -60 -44 -50 -1 4 -2 11 -3 16 -3 23 -15 19 -24 -7 -7 -21
-7 -33 0 -40 13 -13 -9 -11 -32 2 -8 5 -12 5 -7 1 7 -9 -101 -114 -118 -115
-5 0 -23 -14 -41 -31 -17 -17 -38 -31 -47 -33 -9 -1 -26 -14 -37 -29 -12 -15
-28 -27 -35 -27 -8 0 -19 -9 -25 -20 -6 -11 -17 -20 -25 -20 -18 0 -20 17 -2
23 6 2 9 7 5 11 -3 4 -15 2 -27 -5 -11 -7 -24 -10 -28 -5 -15 15 -8 120 11
148 12 19 16 36 11 57 -4 20 3 59 25 126 18 52 29 102 26 111 -3 8 -2 13 3 10
10 -7 21 17 21 44 0 10 7 26 16 34 8 9 12 16 7 16 -4 0 -1 5 7 10 10 6 11 13
5 18 -6 4 -8 22 -4 42 3 19 7 28 8 20 1 -8 9 9 17 39 8 30 12 56 9 59 -3 3 -5
-3 -5 -13 0 -17 -1 -17 -20 0 -21 19 -27 55 -10 55 5 0 1 9 -10 20 -11 11 -33
20 -50 20 -23 0 -30 4 -28 16 2 10 -3 19 -11 22 -10 3 -12 -1 -8 -17 3 -14 0
-21 -9 -21 -8 0 -14 6 -14 13 0 7 -14 18 -31 24 -24 10 -30 17 -26 32 3 11 -1
25 -9 32 -11 9 -14 6 -14 -20 0 -29 -2 -31 -21 -20 -15 8 -18 13 -10 18 21 13
-16 34 -70 39 -27 2 -52 9 -55 13 -3 5 -23 9 -45 9 -21 0 -39 5 -39 10 0 6 14
10 30 10 25 0 30 4 30 25 0 24 -9 30 -39 25 -28 -4 -59 10 -64 30 -3 11 -1 20
3 20 5 0 7 7 6 16 -3 20 -42 43 -73 44 -13 0 -23 4 -23 8 0 5 -25 19 -55 31
-30 13 -55 27 -55 32 0 5 -7 9 -16 9 -13 0 -14 3 -5 14 11 12 6 15 -31 18 -37
3 -43 6 -42 26 0 12 -5 22 -12 22 -11 0 -29 28 -26 42 1 4 -11 6 -26 6 -15 -1
-41 6 -57 15 -23 13 -26 16 -11 17 21 0 16 10 -6 14 -12 1 -31 14 -83 53 -5 5
-23 14 -38 20 -15 7 -30 20 -33 28 -4 8 -14 15 -23 15 -10 0 -36 17 -59 37
-58 53 -72 65 -72 58 0 -3 -17 11 -38 32 -53 52 -68 63 -88 63 -10 0 -14 5
-10 15 3 8 0 14 -6 12 -7 -1 -12 3 -13 8 -1 18 -29 49 -67 75 -22 15 -33 29
-28 34 11 11 -17 56 -35 56 -8 0 -16 9 -20 19 -3 11 -12 22 -20 25 -18 7 -20
36 -2 36 9 0 9 2 0 8 -7 5 -11 24 -10 44 2 21 -1 34 -6 31 -5 -3 -6 4 -2 16 5
15 2 21 -9 21 -9 0 -16 7 -16 15 0 8 -8 19 -19 24 -41 22 -33 115 20 218 10
20 16 39 14 43 -3 5 1 20 9 35 11 20 12 35 5 53 -10 25 -9 26 9 9 18 -16 20
-16 26 -2 3 9 2 13 -4 10 -6 -3 -10 1 -10 10 0 9 47 -24 121 -85 66 -56 126
-99 131 -98 6 2 28 42 48 89 l37 85 -69 59 c-112 96 -317 315 -390 417 -16 23
-16 22 -60 -70 l-43 -93 -62 93 c-63 95 -120 208 -154 306 l-19 55 49 92 c39
75 47 100 44 131 -5 47 -18 64 -28 35 -13 -42 -77 -173 -81 -168 -3 3 -7 29
-9 58 -2 31 0 48 4 40 7 -10 11 -8 16 10 4 13 21 53 37 88 26 57 29 76 32 180
3 131 22 207 84 331 54 108 185 237 309 304 l92 48 -47 24 c-26 13 -52 22 -59
19 -7 -2 -15 0 -18 5 -4 6 8 10 25 10 27 0 30 2 21 19 -6 10 -24 24 -41 29
-20 8 -30 18 -30 31 0 23 -15 28 -23 9 -4 -9 -8 -10 -14 -2 -4 6 -16 13 -26
17 -15 5 -16 10 -7 27 9 16 8 21 -5 25 -51 16 -50 16 -35 25 11 7 7 13 -18 27
-18 10 -34 25 -37 33 -3 9 -25 21 -49 28 -24 6 -50 18 -57 26 -39 40 -50 59
-44 77 5 15 2 19 -19 19 -15 0 -26 6 -26 14 0 13 -105 27 -297 40 -34 2 -76
11 -94 20 -18 9 -72 21 -120 28 -78 10 -89 14 -99 36 -6 14 -7 28 -2 31 5 3
11 14 15 24 3 9 17 17 29 17 13 0 41 11 63 25 22 13 50 29 62 34 15 7 23 19
23 36 0 14 6 26 13 27 6 0 17 2 22 3 6 2 16 3 23 4 7 0 11 5 8 10 -8 12 30 44
43 37 5 -4 15 3 21 14 6 11 16 17 22 14 7 -5 9 -2 5 9 -3 9 -2 19 3 22 6 4 10
2 10 -4 0 -5 8 -8 18 -6 24 4 20 14 -39 92 -73 98 -154 244 -214 391 -55 132
-71 150 -132 152 -13 0 -23 4 -23 10 0 5 8 7 17 3 10 -3 15 -2 10 2 -4 5 -26
9 -50 11 -57 2 -57 2 -55 17 2 8 -8 11 -33 9 -21 -2 -40 1 -44 7 -3 6 0 11 7
11 7 0 -3 14 -21 31 -30 27 -37 29 -59 20 -22 -10 -24 -10 -17 6 4 10 7 26 7
36 -1 20 53 51 75 43 19 -8 78 11 115 36 30 21 75 24 81 6 2 -7 3 -4 1 7 -10
61 -16 473 -9 617 l7 166 47 -1 46 -2 5 320 c4 276 3 322 -10 332 -10 8 -19 8
-27 1 -9 -8 -13 -7 -13 3 0 11 -2 11 -9 0 -20 -32 -24 64 -7 177 28 187 107
435 180 562 21 36 30 44 55 45 20 1 27 -3 21 -10 -4 -6 -1 -16 8 -25 14 -13
15 -12 9 2 -4 12 -2 15 9 11 9 -3 13 -13 10 -22 -6 -18 -10 -23 70 99 66 100
136 192 198 257 43 47 47 55 35 70 -15 20 -40 37 -51 38 -5 0 -8 3 -8 8 0 4 0
11 0 16 0 6 37 41 83 79 318 267 737 427 1204 458 89 6 100 9 87 21 -8 8 -12
19 -9 24 4 5 2 9 -2 9 -5 0 -14 19 -20 42 -10 37 -9 43 10 59 24 20 36 21 167
19 47 -1 98 4 114 10 32 12 146 32 316 56 81 11 153 15 243 11 119 -5 127 -4
127 13 0 31 18 32 32 3 13 -27 17 -28 88 -29 64 -1 86 -6 153 -37 43 -21 94
-37 113 -37 19 0 33 -4 30 -9 -3 -5 6 -12 21 -16 20 -5 24 -8 13 -15 -8 -5 4
-7 31 -4 33 4 40 3 29 -5 -28 -20 -19 -18 302 65 60 15 110 34 113 41 2 8 0
11 -5 8 -6 -3 -10 4 -10 15 0 15 5 20 14 17 21 -8 36 13 29 44 -4 21 0 30 16
39 32 17 53 5 84 -45 26 -45 28 -46 65 -39 47 9 112 32 92 33 -13 1 -13 2 0
11 10 6 11 10 3 10 -7 0 -13 7 -13 15 0 8 5 15 10 15 15 0 12 123 -4 156 -21
43 -27 144 -9 144 19 0 90 -51 131 -93 29 -31 62 -46 115 -52 9 -1 26 -10 36
-19 9 -9 30 -16 45 -16 15 0 36 -5 46 -10 13 -7 21 -7 25 0 3 5 1 10 -5 10 -7
0 -10 5 -8 11 2 6 6 9 8 8 15 -8 50 25 50 46 0 19 5 24 21 22 13 -1 26 6 33
18 17 30 27 35 79 35 26 0 47 5 47 10 0 6 -16 10 -37 10 -55 0 -29 15 30 17
48 2 102 8 119 11 4 1 8 12 10 25 2 14 11 23 26 25 13 2 28 13 33 25 9 20 79
63 94 57 4 -1 19 9 33 22 15 13 39 30 54 38 16 7 26 16 23 19 -8 7 56 32 66
25 5 -3 9 0 9 6 0 6 4 9 9 6 5 -3 11 1 15 9 3 8 14 15 25 15 10 0 21 7 25 15
3 8 17 15 31 15 14 0 44 9 67 21 22 11 49 18 60 15 14 -3 22 1 25 15 3 10 9
19 14 19 5 0 6 -8 3 -17 -2 -10 6 5 19 32 13 28 22 54 19 59 -3 5 0 6 6 2 7
-4 12 -2 12 4 0 12 48 85 134 204 l57 79 -6 251 c-3 138 -3 282 1 319 6 66 8
68 32 65 37 -4 81 -84 167 -303 5 -11 7 -23 7 -27 -5 -23 18 0 58 56 56 79
489 677 583 804 51 70 79 98 110 113 50 23 108 21 164 -8z m1984 -50 c13 -16
12 -17 -3 -4 -10 7 -18 15 -18 17 0 8 8 3 21 -13z m-9396 -232 c3 -5 1 -12 -5
-16 -5 -3 -10 1 -10 9 0 18 6 21 15 7z m4265 -77 c471 -82 895 -362 983 -649
25 -81 29 -123 17 -183 -16 -82 -18 -87 -44 -115 -14 -15 -31 -55 -41 -96 -15
-62 -37 -102 -50 -89 -2 2 2 25 10 51 13 45 13 46 -5 35 -11 -7 -26 -38 -36
-76 -15 -56 -22 -66 -50 -78 -18 -8 -35 -18 -38 -23 -10 -16 -59 -23 -67 -9
-7 10 -9 9 -9 -4 0 -20 -13 -30 -32 -23 -9 4 -12 18 -10 46 6 56 -18 48 -35
-11 -7 -23 -15 -46 -19 -49 -4 -3 -4 3 -1 14 23 78 23 78 -14 71 -19 -3 -45
-8 -59 -11 -14 -3 -52 -8 -85 -11 -33 -4 -64 -12 -68 -18 -6 -8 -10 -7 -14 2
-3 8 -30 12 -84 12 l-79 0 -11 -45 c-11 -43 -13 -45 -46 -45 -35 0 -35 0 -29
36 4 19 10 43 13 51 4 10 2 14 -4 10 -6 -4 -16 -27 -22 -52 -9 -36 -15 -45
-29 -41 -9 2 -52 12 -94 21 -43 9 -78 19 -78 23 0 4 5 24 11 45 6 22 8 41 5
44 -3 3 -10 -15 -17 -41 -6 -25 -17 -46 -24 -46 -14 0 -26 68 -13 76 15 10 8
22 -21 34 -37 15 -47 9 -55 -35 -4 -19 -12 -37 -18 -41 -7 -5 -9 1 -4 20 3 14
9 37 12 50 5 22 1 27 -32 41 -43 18 -49 13 -60 -42 -3 -18 -11 -33 -16 -33 -6
0 -8 6 -5 14 3 8 9 30 12 49 l7 35 -94 45 c-93 45 -256 153 -314 209 -34 32
-38 30 -49 -19 -3 -18 -10 -33 -13 -33 -11 0 -92 93 -98 113 -3 9 -9 17 -14
17 -5 0 -14 15 -20 34 -9 27 -8 42 3 69 15 34 12 87 -3 87 -5 0 -11 -18 -15
-41 -5 -28 -10 -38 -17 -31 -7 7 -6 27 2 60 7 30 9 72 5 104 -8 65 7 156 37
217 63 131 235 228 472 267 102 17 336 11 466 -12z m-3636 -10 c7 -19 -10 -44
-29 -44 -19 0 -38 28 -31 45 7 20 52 19 60 -1z m5050 -5 c-3 -5 -10 -7 -15 -3
-5 3 -7 10 -3 15 3 5 10 7 15 3 5 -3 7 -10 3 -15z m-4185 -98 c8 -14 7 -22 -4
-31 -19 -16 -45 -6 -45 18 0 36 33 45 49 13z m1655 -147 c31 -30 9 -84 -34
-84 -23 0 -50 26 -50 47 0 23 29 53 51 53 10 0 25 -7 33 -16z m-554 -44 c0 -5
-5 -10 -11 -10 -5 0 -7 5 -4 10 3 6 8 10 11 10 2 0 4 -4 4 -10z m-2679 -23
c-13 -13 -26 -3 -16 12 3 6 11 8 17 5 6 -4 6 -10 -1 -17z m2608 -328 c29 -27
24 -66 -10 -92 -24 -17 -30 -18 -55 -5 -25 11 -29 19 -29 53 0 32 5 42 25 52
34 17 43 16 69 -8z m10084 -235 c8 -67 11 -124 6 -130 -10 -12 90 -44 138 -44
105 -1 92 -33 -30 -78 l-98 -36 6 -116 c6 -97 5 -118 -8 -128 -12 -11 -27 2
-96 83 -45 52 -84 95 -87 95 -3 0 -50 -16 -106 -35 -55 -20 -103 -33 -106 -31
-2 3 21 46 52 96 31 50 57 94 59 99 1 5 -30 51 -70 103 -74 99 -81 127 -28
114 15 -4 34 -13 41 -21 17 -16 117 -55 143 -55 11 0 39 31 77 88 65 96 86
124 90 119 2 -2 10 -57 17 -123z m-12136 -50 c8 -21 -13 -42 -28 -27 -13 13
-5 43 11 43 6 0 13 -7 17 -16z m248 -13 c7 -12 -12 -24 -25 -16 -11 7 -4 25
10 25 5 0 11 -4 15 -9z m2250 -61 c3 -5 1 -10 -4 -10 -6 0 -11 5 -11 10 0 6 2
10 4 10 3 0 8 -4 11 -10z m2975 -25 c0 -8 -7 -15 -15 -15 -8 0 -15 7 -15 15 0
8 7 15 15 15 8 0 15 -7 15 -15z m-3602 -198 c4 -20 -25 -34 -40 -19 -15 15 -1
44 19 40 10 -2 19 -11 21 -21z m-953 -75 c0 -18 -20 -15 -23 4 -3 10 1 15 10
12 7 -3 13 -10 13 -16z m3076 -107 c-1 -15 -24 -12 -29 3 -3 9 2 13 12 10 10
-1 17 -7 17 -13z m744 -5 c40 -44 10 -120 -47 -120 -34 0 -78 39 -78 70 0 31
44 70 78 70 16 0 37 -9 47 -20z m-1506 -278 c7 -13 6 -23 -1 -30 -28 -28 -63
3 -38 33 16 20 27 19 39 -3z m-411 -40 c2 -7 -3 -12 -12 -12 -9 0 -16 7 -16
16 0 17 22 14 28 -4z m-884 -279 c4 -9 0 -23 -9 -32 -13 -14 -17 -14 -31 1 -9
9 -14 24 -11 32 8 21 43 20 51 -1z m1525 3 c15 -18 3 -46 -20 -46 -22 0 -34
22 -25 45 7 19 30 19 45 1z m667 -14 c-4 -3 -14 2 -24 12 -16 18 -16 18 6 6
13 -6 21 -14 18 -18z m8967 -3542 c-3 -11 -7 -20 -9 -20 -2 0 -4 9 -4 20 0 11
4 20 9 20 5 0 7 -9 4 -20z m-1043 -1250 c-40 -22 -50 -24 -50 -11 0 10 45 29
70 30 8 0 -1 -8 -20 -19z m-11030 -260 c0 -13 -11 -13 -30 0 -12 8 -11 10 8
10 12 0 22 -4 22 -10z m115 -220 c0 -7 -7 -15 -15 -17 -13 -4 -13 -3 0 6 13
10 13 12 0 22 -13 9 -13 10 0 6 8 -2 15 -10 15 -17z m10693 -508 c2 -14 -2
-22 -12 -22 -19 0 -29 17 -22 36 8 22 30 12 34 -14z m-408 -111 c0 -12 -20
-25 -27 -18 -7 7 6 27 18 27 5 0 9 -4 9 -9z m-10737 -246 c-3 -9 -8 -14 -10
-11 -3 3 -2 9 2 15 9 16 15 13 8 -4z m9897 -644 c0 -5 -9 -11 -20 -14 -11 -3
-20 -1 -20 3 0 5 8 11 18 13 9 3 18 5 20 6 1 0 2 -3 2 -8z m1895 -14 c13 -10
16 -21 11 -40 -5 -22 -12 -27 -36 -27 -24 0 -31 5 -36 27 -5 19 -2 30 11 40
11 7 22 13 25 13 3 0 14 -6 25 -13z m-2218 -273 c-3 -3 -12 -4 -19 -1 -8 3 -5
6 6 6 11 1 17 -2 13 -5z m1454 -241 l59 -72 150 51 c110 38 153 49 161 41 14
-14 -9 -46 -62 -90 -19 -15 -28 -20 -20 -10 7 9 9 17 4 17 -8 0 -32 -24 -107
-107 l-37 -42 42 -58 c23 -32 60 -82 82 -111 22 -29 38 -54 36 -56 -10 -8
-304 36 -311 47 -11 15 -111 -90 -102 -105 4 -6 2 -8 -3 -5 -6 4 -19 -3 -29
-16 -16 -18 -16 -19 -1 -8 28 22 19 5 -22 -40 -31 -35 -42 -41 -53 -31 -12 10
-13 23 -2 84 26 162 27 157 -14 163 -189 30 -227 40 -230 62 -4 26 -13 21 174
93 l132 51 22 122 c13 67 25 126 28 131 3 5 14 -2 24 -15 11 -13 46 -56 79
-96z m-1534 -155 c-3 -20 -4 -21 -11 -5 -5 9 -5 29 0 45 7 25 8 26 11 5 3 -13
3 -33 0 -45z m3151 -101 c4 -20 -25 -34 -40 -19 -15 15 -1 44 19 40 10 -2 19
-11 21 -21z m-851 -503 c15 -24 15 -29 2 -53 -11 -20 -22 -26 -49 -26 -27 0
-38 6 -49 26 -13 24 -13 29 2 53 12 18 26 26 47 26 21 0 35 -8 47 -26z m-1188
-25 c13 -24 13 -29 -2 -53 -37 -55 -121 -15 -98 47 17 45 76 49 100 6z m1989
-16 c-2 -10 -10 -18 -18 -18 -8 0 -16 8 -18 18 -2 12 3 17 18 17 15 0 20 -5
18 -17z m-3193 -3 c3 -5 1 -10 -4 -10 -6 0 -11 5 -11 10 0 6 2 10 4 10 3 0 8
-4 11 -10z m281 -164 c19 -20 18 -40 -2 -32 -9 3 -18 6 -20 6 -2 0 -4 9 -4 20
0 24 6 25 26 6z m-566 -175 c0 -6 -4 -13 -10 -16 -5 -3 -10 1 -10 9 0 9 5 16
10 16 6 0 10 -4 10 -9z m-7620 -126 c0 -18 -1 -18 -36 0 l-29 15 33 0 c22 0
32 -5 32 -15z m7160 -41 c0 -2 -7 -4 -15 -4 -8 0 -15 4 -15 10 0 5 7 7 15 4 8
-4 15 -8 15 -10z m-2 -55 c-3 -8 -7 -3 -11 10 -4 17 -3 21 5 13 5 -5 8 -16 6
-23z m2122 -132 c0 -17 -20 -37 -37 -37 -7 0 -17 9 -23 19 -14 28 13 55 41 41
10 -6 19 -16 19 -23z m2940 -298 c0 -5 -7 -9 -15 -9 -15 0 -20 12 -9 23 8 8
24 -1 24 -14z m-11308 -241 c-7 -7 -12 -8 -12 -2 0 14 12 26 19 19 2 -3 -1
-11 -7 -17z m6575 -60 c-3 -8 -6 -5 -6 6 -1 11 2 17 5 13 3 -3 4 -12 1 -19z
m-20 -40 c-3 -8 -6 -5 -6 6 -1 11 2 17 5 13 3 -3 4 -12 1 -19z m-6110 -24 c-7
-7 -37 7 -37 17 0 6 9 5 21 -1 11 -7 19 -14 16 -16z m6140 -3 c0 -11 -5 -17
-9 -15 -4 3 -8 0 -8 -7 0 -7 -3 -10 -6 -7 -5 6 13 48 21 48 2 0 3 -9 2 -19z
m-6078 -69 c1 -7 -3 -10 -9 -7 -5 3 -10 21 -9 38 1 31 1 31 9 7 4 -14 8 -31 9
-38z m6078 -29 c-3 -10 -5 -4 -5 12 0 17 2 24 5 18 2 -7 2 -21 0 -30z m-110
-145 c-3 -8 -6 -5 -6 6 -1 11 2 17 5 13 3 -3 4 -12 1 -19z m30 -120 c-3 -8 -6
-5 -6 6 -1 11 2 17 5 13 3 -3 4 -12 1 -19z m23 -25 c0 -5 -5 -15 -10 -23 -8
-12 -10 -11 -10 8 0 12 5 22 10 22 6 0 10 -3 10 -7z m-5740 -83 c0 -51 -3 -60
-18 -60 -30 0 -42 21 -42 72 0 47 1 48 30 48 l30 0 0 -60z m6008 -29 c8 -4 12
-19 10 -32 -2 -19 -9 -24 -33 -24 -24 0 -31 5 -33 24 -4 23 11 41 33 41 6 0
16 -4 23 -9z m-5868 -51 c0 -13 -7 -20 -20 -20 -13 0 -20 7 -20 20 0 13 7 20
20 20 13 0 20 -7 20 -20z m620 -10 c0 -5 -2 -10 -4 -10 -3 0 -8 5 -11 10 -3 6
-1 10 4 10 6 0 11 -4 11 -10z m5757 -771 c16 -16 5 -39 -18 -39 -12 0 -19 7
-19 18 0 31 17 41 37 21z m-1208 -142 c8 -10 7 -17 -1 -25 -15 -15 -39 3 -31
24 7 18 17 18 32 1z m1801 -612 c0 -8 -7 -15 -15 -15 -16 0 -20 12 -8 23 11
12 23 8 23 -8z"/>
<path d="M13095 16949 c-142 -21 -425 -108 -425 -131 0 -12 3 -11 109 23 53
17 143 42 201 55 122 28 323 43 334 25 4 -6 1 -11 -6 -11 -11 0 -11 -2 0 -8
10 -7 10 -15 2 -37 -6 -15 -8 -30 -5 -33 3 -3 5 1 5 9 0 11 2 11 10 -1 5 -8
10 -10 10 -3 0 14 53 33 92 33 28 0 28 1 13 24 l-16 24 43 -5 c107 -13 236
-78 294 -146 15 -18 40 -59 56 -92 15 -33 28 -53 28 -44 0 34 -63 139 -110
183 -62 58 -170 110 -272 130 -83 17 -263 19 -363 5z m249 -81 c-3 -4 -9 -8
-15 -8 -5 0 -9 4 -9 8 0 5 7 9 15 9 8 0 12 -4 9 -9z"/>
<path d="M13420 16790 c-34 -26 -74 -31 -99 -14 -12 9 -21 11 -21 5 0 -5 5
-13 10 -16 8 -5 7 -11 -1 -21 -9 -11 -8 -14 8 -14 16 0 19 -5 15 -25 -2 -14
-8 -23 -12 -20 -4 3 -11 -15 -14 -40 -4 -25 -10 -45 -14 -45 -4 0 -15 -27 -26
-60 -10 -33 -23 -60 -28 -60 -6 0 -7 -8 -4 -17 4 -9 3 -19 -1 -22 -11 -8 -46
-62 -41 -64 2 -1 18 -10 36 -20 19 -9 39 -14 44 -10 7 3 8 1 4 -6 -4 -6 -2
-19 5 -27 6 -8 12 -39 13 -69 1 -70 -34 -121 -124 -183 -49 -34 -64 -50 -62
-66 1 -11 6 -24 11 -29 5 -5 7 2 4 15 -3 18 5 29 39 51 101 64 148 127 148
196 0 25 -6 57 -13 71 -10 20 -10 30 1 52 7 15 17 30 23 33 5 4 9 13 9 22 0 8
9 27 20 43 11 15 17 30 13 33 -3 4 -2 12 4 19 5 7 15 33 22 58 7 25 17 55 22
68 5 13 9 34 9 48 0 14 5 34 10 45 8 14 7 19 -1 19 -8 0 -9 4 0 13 6 8 8 17 4
20 -3 4 0 13 7 22 16 20 11 18 -20 -5z"/>
<path d="M13151 16538 c-2 -41 -40 -78 -96 -93 l-50 -14 39 0 c72 -2 131 55
115 109 l-7 25 -1 -27z"/>
<path d="M12895 16543 c-11 -3 -24 -9 -30 -15 -11 -11 43 -2 80 13 18 7 17 8
-5 7 -14 0 -34 -2 -45 -5z"/>
<path d="M12723 16483 c-18 -9 -33 -20 -33 -24 0 -8 74 22 87 34 12 13 -22 6
-54 -10z"/>
<path d="M12592 16397 c-19 -23 -32 -66 -22 -72 6 -4 10 1 10 10 0 9 9 30 21
46 20 28 12 42 -9 16z"/>
<path d="M13000 16242 c0 -8 58 -149 66 -161 2 -2 14 8 27 21 51 51 56 88 19
121 -20 18 -112 34 -112 19z m82 -19 c-10 -4 -10 -8 -1 -19 9 -11 8 -14 -4
-14 -8 0 -22 -2 -29 -5 -9 -4 -19 4 -26 20 -11 25 -11 25 31 24 23 0 36 -3 29
-6z m-12 -53 c-8 -5 -19 -10 -25 -10 -5 0 -3 5 5 10 8 5 20 10 25 10 6 0 3 -5
-5 -10z"/>
<path d="M12853 16218 c-30 -7 -43 -14 -43 -26 0 -10 3 -13 8 -6 4 6 27 15 52
20 25 5 41 12 35 15 -5 3 -29 2 -52 -3z"/>
<path d="M12684 16184 c-6 -3 -47 -9 -90 -14 l-79 -9 94 4 c52 2 99 9 104 14
11 11 -7 14 -29 5z"/>
<path d="M12826 16157 c3 -10 9 -15 12 -12 3 3 0 11 -7 18 -10 9 -11 8 -5 -6z"/>
<path d="M11841 16086 c-6 -25 -11 -55 -10 -68 0 -13 7 6 15 41 16 74 12 94
-5 27z"/>
<path d="M12950 16090 c0 -5 5 -10 11 -10 5 0 7 5 4 10 -3 6 -8 10 -11 10 -2
0 -4 -4 -4 -10z"/>
<path d="M12860 16086 c0 -2 9 -24 20 -49 l21 -46 44 21 c25 12 44 27 42 32
-2 6 -18 16 -36 24 -30 11 -33 11 -28 -2 11 -27 -12 -28 -38 -2 -14 14 -25 24
-25 22z"/>
<path d="M12711 16024 c-1 -11 -8 -29 -16 -40 -18 -24 -19 -34 -1 -34 19 0 35
50 25 75 -7 20 -8 20 -8 -1z"/>
<path d="M12968 15949 c-25 -13 -36 -24 -32 -34 5 -12 8 -12 19 -1 7 7 27 19
44 26 31 12 42 31 19 29 -7 -1 -30 -10 -50 -20z"/>
<path d="M13102 15928 c-18 -11 -31 -23 -28 -26 10 -9 66 20 66 34 0 17 3 17
-38 -8z"/>
<path d="M11832 15915 c0 -16 2 -22 5 -12 2 9 2 23 0 30 -3 6 -5 -1 -5 -18z"/>
<path d="M12820 15888 c-14 -6 -69 -12 -122 -13 -82 -1 -100 -5 -115 -21 -23
-25 -87 -54 -118 -54 -14 0 -25 -4 -25 -8 0 -13 -48 -32 -65 -26 -8 4 -15 1
-15 -5 0 -6 -16 -9 -37 -8 -26 1 -37 -2 -35 -10 1 -7 -2 -13 -8 -13 -5 0 -10
7 -10 15 0 17 -16 20 -24 6 -4 -5 0 -12 6 -15 7 -4 2 -4 -11 -2 -14 3 -30 -2
-40 -13 -9 -9 -12 -11 -7 -4 16 23 -2 26 -26 4 -26 -25 -73 -39 -105 -33 -17
3 -23 11 -23 29 0 15 -4 22 -11 18 -6 -4 -8 -14 -4 -23 5 -14 4 -14 -12 0 -14
13 -23 14 -37 6 -14 -8 -17 -7 -12 1 4 6 3 11 -3 11 -44 0 21 -63 91 -89 18
-7 42 -18 53 -23 18 -10 19 -9 6 5 -14 18 -8 20 24 8 12 -5 25 -3 33 6 7 7 19
13 25 13 7 0 6 -4 -3 -10 -13 -8 -13 -10 2 -10 9 0 19 9 23 20 13 42 98 78
134 56 29 -18 3 -64 -49 -85 -18 -7 -20 -10 -7 -10 9 -1 37 17 61 39 23 22 46
37 49 34 4 -4 18 1 31 10 14 9 33 16 43 16 10 0 42 11 71 25 29 13 54 25 57
25 7 1 89 40 105 50 8 5 30 15 48 22 17 7 32 17 32 22 0 4 7 3 15 -4 12 -10
15 -10 15 4 0 9 7 16 15 16 8 0 15 7 15 15 0 8 -1 15 -2 14 -2 0 -14 -5 -28
-11z m-490 -148 c0 -5 -2 -10 -4 -10 -3 0 -8 5 -11 10 -3 6 -1 10 4 10 6 0 11
-4 11 -10z"/>
<path d="M12954 15878 c4 -13 -4 -22 -25 -34 -39 -20 -30 -31 11 -14 32 13 37
26 19 50 -9 13 -10 12 -5 -2z"/>
<path d="M13420 15771 c0 -6 4 -13 10 -16 6 -3 7 1 4 9 -7 18 -14 21 -14 7z"/>
<path d="M11901 15765 c0 -5 6 -18 14 -29 13 -18 14 -18 12 2 0 11 -4 19 -8
16 -4 -2 -10 2 -12 8 -3 7 -6 9 -6 3z"/>
<path d="M13436 15727 c3 -10 9 -15 12 -12 3 3 0 11 -7 18 -10 9 -11 8 -5 -6z"/>
<path d="M12498 15593 c7 -3 16 -2 19 1 4 3 -2 6 -13 5 -11 0 -14 -3 -6 -6z"/>
<path d="M9754 15468 c-30 -34 -369 -507 -369 -516 0 -4 18 -88 39 -186 40
-178 40 -179 58 -155 9 13 75 104 145 203 70 98 134 186 141 196 9 13 12 74
10 249 l-3 233 -21 -24z"/>
<path d="M9866 15143 l-75 -138 26 -27 c14 -15 30 -25 34 -22 5 3 6 -3 2 -13
-6 -16 -5 -16 10 -5 9 8 22 10 29 6 7 -4 10 -4 6 0 -4 4 23 31 60 58 37 28 69
54 70 59 2 5 10 9 18 9 8 0 11 6 7 17 -4 11 -3 14 5 9 7 -4 12 -3 12 2 0 14
-111 182 -120 182 -5 0 -42 -62 -84 -137z"/>
<path d="M9122 14588 c-54 -73 -116 -158 -138 -189 -21 -30 -89 -125 -150
-210 -148 -205 -192 -295 -201 -403 -2 -28 -6 -72 -9 -99 -9 -74 -1 -92 43
-95 57 -4 103 -21 155 -59 49 -36 122 -128 113 -143 -3 -5 -1 -11 5 -15 6 -4
8 -9 6 -13 -2 -4 -7 -25 -10 -46 -7 -43 -44 -116 -60 -116 -5 0 -6 -3 -3 -7
10 -10 -14 -34 -27 -27 -6 4 3 -6 19 -20 17 -14 64 -43 104 -63 l75 -38 146 0
147 0 -8 -30 c-4 -16 -12 -45 -18 -64 -6 -19 -8 -37 -6 -41 7 -12 -50 -20
-135 -20 -126 0 -279 47 -386 120 -49 33 -59 36 -48 18 4 -7 -1 -6 -12 4 -17
14 -20 15 -33 1 -11 -12 -29 -14 -84 -10 -48 4 -105 0 -181 -13 -129 -23 -148
-24 -126 -10 12 8 12 10 1 10 -8 0 -38 12 -67 26 l-54 26 -682 -171 c-376 -94
-842 -211 -1037 -261 l-354 -90 -551 7 c-583 6 -696 1 -891 -38 -55 -11 -140
-34 -190 -51 -105 -35 -269 -118 -311 -156 -16 -15 -32 -26 -37 -24 -5 1 -6
-2 -3 -7 4 -5 15 -8 25 -6 12 2 21 -3 24 -16 3 -12 14 -19 28 -19 21 0 18 -4
-16 -27 -60 -40 -92 -67 -179 -151 -224 -217 -354 -499 -401 -862 l-6 -45 -37
3 c-69 7 -65 38 -66 -641 -1 -591 0 -615 20 -708 15 -64 29 -104 43 -118 19
-19 24 -19 23 -1 0 3 8 6 18 6 10 0 16 -4 14 -8 -3 -4 -1 -8 4 -8 6 0 13 8 17
18 4 12 12 0 26 -43 34 -100 127 -281 188 -363 181 -243 486 -430 831 -508
111 -25 177 -31 150 -14 -12 8 -12 10 5 10 17 0 17 2 5 10 -13 9 -13 10 0 10
8 0 24 13 35 29 27 42 160 112 245 131 30 7 82 18 115 25 78 17 168 26 319 31
66 2 141 5 166 7 42 4 240 -16 278 -27 9 -3 28 -7 42 -10 14 -2 52 -13 85 -25
32 -12 66 -21 75 -21 21 0 38 -12 42 -30 2 -8 18 -25 36 -38 17 -12 32 -27 32
-31 0 -5 15 -16 34 -25 32 -15 34 -19 31 -61 -3 -47 -26 -92 -51 -102 -8 -3
-14 -10 -14 -16 0 -6 3 -7 7 -4 3 4 11 3 18 -3 10 -8 806 -208 1495 -375 129
-31 571 -139 981 -240 l745 -184 575 145 574 145 35 42 c242 290 610 530 1043
678 50 18 100 39 109 47 9 7 21 11 26 8 6 -3 75 10 153 28 177 43 310 63 502
77 373 26 766 -51 992 -195 l55 -36 288 0 c312 0 427 11 589 55 178 49 358
134 509 241 143 102 311 306 383 465 68 151 113 354 126 572 l7 107 31 2 c18
0 38 1 45 1 9 -1 12 47 11 211 -1 116 -4 240 -8 276 l-6 65 -38 1 c-20 0 -41
5 -46 10 -5 5 -14 142 -19 304 -12 325 -17 356 -96 552 -63 156 -137 280 -239
400 -31 36 -53 69 -49 74 4 4 2 4 -4 1 -15 -9 -48 29 -39 43 5 9 1 10 -13 6
-11 -4 -23 -3 -26 2 -3 5 8 8 24 7 31 -2 69 13 40 16 -8 1 -19 1 -25 -1 -5 -1
-5 4 1 10 8 8 18 9 31 2 15 -8 19 -7 19 7 0 10 -8 17 -20 17 -10 -1 -20 5 -22
12 -1 7 0 8 3 2 2 -5 9 -10 15 -10 37 0 -127 117 -247 177 -250 125 -460 165
-870 164 -274 -1 -349 -6 -323 -22 10 -7 9 -9 -4 -9 -19 0 -20 -20 -3 -32 6
-5 5 -11 -4 -17 -11 -7 -7 -10 15 -14 16 -2 -136 -5 -338 -6 l-368 -1 0 55 c0
51 -2 55 -27 61 -16 4 -111 28 -213 55 -873 225 -1215 307 -1228 294 -3 -3 1
-5 9 -6 17 -1 -20 -17 -41 -18 -13 -1 -13 0 0 9 8 5 11 10 5 10 -5 0 -17 -5
-25 -10 -10 -6 -11 -10 -2 -10 6 0 12 -6 12 -14 0 -9 -9 -12 -27 -9 -24 3 -25
2 -8 -7 36 -17 -41 -1 -347 74 l-294 72 -104 -53 c-122 -61 -237 -89 -334 -80
-33 3 -62 10 -64 16 -2 6 -10 18 -19 26 -8 8 -11 15 -6 15 4 0 3 4 -2 8 -6 4
-17 21 -25 37 -8 17 -25 38 -38 48 -12 10 -20 23 -17 28 4 5 1 9 -6 9 -7 0
-10 2 -8 5 3 2 29 -2 59 -10 82 -22 178 -28 250 -16 79 13 189 67 250 122 25
23 38 36 29 30 -9 -6 -20 -7 -24 -3 -5 4 -5 1 -1 -5 10 -17 -4 -16 -28 2 -10
8 -23 12 -27 9 -5 -3 -30 2 -56 11 -26 9 -58 13 -71 10 -26 -7 -152 48 -209
91 -17 13 -37 24 -43 24 -22 0 -156 71 -211 113 -70 52 -155 132 -234 219
l-60 67 -90 -77 c-375 -323 -377 -324 -487 -330 -95 -6 -159 18 -223 82 -51
51 -57 64 -81 193 -2 11 3 59 11 105 22 130 77 227 284 502 99 132 199 265
221 297 l40 58 -97 73 c-54 40 -103 77 -110 81 -9 5 -43 -34 -111 -125z m588
-1325 c0 -271 -88 -524 -260 -750 -79 -105 -97 -118 -179 -135 -59 -12 -64
-11 -77 7 -19 26 -18 109 2 148 10 18 46 64 82 102 90 98 115 136 213 332 65
128 83 173 73 177 -16 6 -19 32 -4 41 6 4 17 2 24 -4 10 -8 24 11 62 87 27 54
52 97 57 95 4 -2 7 -47 7 -100z m240 -73 c46 -80 100 -174 120 -210 21 -36
104 -157 184 -269 94 -132 148 -217 152 -240 6 -29 -8 -117 -20 -129 -7 -6
-132 40 -150 56 -29 27 -147 197 -218 317 -67 112 -113 234 -144 379 -19 91
-30 265 -16 251 5 -5 47 -75 92 -155z m-1238 -285 c0 -5 -5 -11 -11 -13 -6 -2
-11 4 -11 13 0 9 5 15 11 13 6 -2 11 -8 11 -13z m-792 -95 c0 -5 -7 -10 -15
-10 -8 0 -15 5 -15 10 0 6 7 10 15 10 8 0 15 -4 15 -10z m275 -190 c0 -18 -6
-26 -23 -28 -24 -4 -38 18 -28 44 3 9 15 14 28 12 17 -2 23 -10 23 -28z m680
-90 c-3 -5 -10 -10 -16 -10 -5 0 -9 5 -9 10 0 6 7 10 16 10 8 0 12 -4 9 -10z
m-3645 -350 c0 -5 -4 -10 -10 -10 -5 0 -10 5 -10 10 0 6 5 10 10 10 6 0 10 -4
10 -10z m760 -135 c76 -75 130 -135 121 -135 -14 0 -14 -2 -1 -10 13 -9 13
-10 0 -10 -8 -1 -4 -6 10 -12 15 -7 83 -10 170 -9 215 4 516 -31 568 -65 l24
-16 -41 -30 -41 -30 0 -69 c0 -72 11 -89 59 -89 16 0 21 -9 27 -56 11 -92 1
-154 -30 -181 -34 -29 -64 -29 -116 -2 -45 24 -51 32 -17 24 12 -3 31 -6 42
-8 11 -1 25 -6 31 -10 8 -4 9 3 5 26 -5 24 -17 38 -50 56 -67 37 -219 88 -301
101 -98 15 -236 10 -232 -9 1 -7 -3 -20 -10 -29 -11 -13 -9 -15 15 -10 63 12
5 -14 -79 -36 -49 -12 -114 -35 -144 -51 -60 -30 -122 -80 -113 -89 7 -7 -26
-46 -39 -46 -6 0 -19 -10 -30 -22 -11 -13 -16 -16 -12 -8 4 8 -7 2 -25 -15
-38 -35 -104 -165 -127 -250 -9 -33 -19 -116 -21 -185 -6 -142 15 -256 63
-352 37 -75 127 -208 162 -242 19 -17 28 -35 25 -45 -4 -14 -3 -14 6 -1 9 13
12 13 27 -1 12 -13 13 -18 3 -24 -8 -6 -10 -4 -4 5 6 10 3 12 -12 8 -11 -3
-28 -1 -38 5 -14 7 -16 7 -10 -3 6 -10 2 -12 -16 -7 -21 5 -20 2 11 -24 46
-39 181 -104 248 -119 79 -18 181 -18 192 0 5 8 7 17 4 21 -2 4 0 10 6 14 6 4
8 10 5 15 -3 4 14 11 37 15 107 18 294 95 432 179 71 43 104 45 140 10 40 -41
24 -103 -27 -104 -12 0 -16 4 -11 13 5 8 4 9 -4 2 -10 -9 -31 -194 -32 -272 0
-17 -14 -27 -72 -51 -107 -44 -228 -80 -325 -97 -112 -20 -336 -19 -449 0
-233 41 -456 163 -590 323 -33 39 -65 69 -71 67 -7 -2 -16 3 -21 11 -8 14 -10
14 -21 0 -8 -9 -17 -16 -22 -16 -11 0 -75 116 -105 192 -35 88 -62 206 -70
304 l-7 84 42 -5 41 -4 0 46 c0 26 -3 43 -6 40 -4 -3 -15 -2 -25 4 -11 5 -19
6 -19 1 0 -5 -7 -9 -15 -9 -19 0 -19 47 0 187 23 173 82 313 193 456 38 49 76
95 85 103 10 7 17 18 17 23 0 6 -7 5 -15 -2 -15 -12 -16 -11 -19 23 -1 6 -14
21 -31 32 -31 22 -42 56 -30 102 6 26 56 83 72 83 12 0 158 152 158 165 0 5
22 25 48 45 26 20 55 47 64 61 9 13 24 31 33 39 8 8 21 27 28 43 15 35 68 67
111 67 30 0 49 -15 171 -135z m1703 21 c7 -17 -18 -40 -33 -31 -5 3 -10 15
-10 26 0 23 35 27 43 5z m2194 -231 c86 -25 175 -107 185 -170 3 -19 -1 -21
-41 -24 -17 -1 -19 -11 -23 -90 -2 -72 -7 -95 -24 -118 -32 -43 -104 -83 -161
-89 -66 -8 -116 9 -169 58 -51 47 -72 118 -56 192 9 43 8 45 -17 52 -14 4 -29
7 -33 6 -13 -3 -9 27 6 57 26 50 108 111 176 132 41 12 103 10 157 -6z m3356
-378 c20 -15 40 -27 46 -27 10 0 114 -93 172 -154 39 -41 61 -88 46 -98 -11
-7 -4 -16 64 -89 10 -9 30 -20 45 -23 35 -8 79 -76 70 -109 -9 -37 -155 -164
-170 -150 -4 4 -4 -1 0 -11 6 -15 4 -17 -6 -11 -10 6 -12 4 -7 -9 4 -9 3 -14
-2 -11 -18 11 -18 -11 0 -100 43 -208 8 -446 -89 -603 -44 -71 -96 -136 -85
-107 6 18 5 19 -10 6 -16 -12 -17 -12 -11 5 6 16 5 17 -7 7 -16 -16 -29 -17
-29 -2 0 5 5 7 10 4 6 -3 10 -1 10 4 0 19 -11 12 -85 -56 -88 -83 -175 -135
-280 -170 -109 -35 -262 -37 -380 -4 -94 26 -208 85 -279 144 -27 23 -47 36
-42 30 4 -8 2 -13 -7 -13 -17 0 -30 -27 -21 -43 4 -7 -11 5 -32 25 -90 86
-157 246 -173 416 -40 430 189 795 579 920 75 24 221 45 256 36 19 -5 23 -3
18 9 -4 11 11 21 57 38 37 15 84 44 119 74 31 28 68 60 82 72 48 40 89 40 141
0z m-5459 -232 c183 -35 336 -161 381 -314 6 -21 5 -23 -14 -18 -11 3 -24 1
-27 -4 -3 -5 -10 -6 -16 -3 -7 5 -9 -1 -5 -18 4 -14 10 -57 13 -97 l7 -71 33
6 c29 5 34 3 39 -17 7 -29 1 -626 -6 -654 -8 -26 -46 -32 -52 -8 -3 10 -5 -1
-6 -24 0 -23 4 -45 9 -48 6 -3 10 0 10 7 0 8 3 9 8 3 4 -5 14 -10 22 -10 8 0
18 -11 22 -25 4 -14 16 -54 28 -90 31 -92 34 -131 16 -155 -16 -20 -16 -20
-43 10 l-26 30 -189 4 -188 3 0 37 c0 76 -56 104 -116 59 -55 -41 -102 -91
-98 -102 2 -6 -2 -20 -10 -31 -13 -18 -14 -18 -20 2 -6 18 -17 21 -99 26 -50
3 -108 11 -127 16 -58 17 -142 73 -176 118 -31 40 -32 41 -60 27 -32 -17 -37
-12 -54 46 -14 50 -14 50 23 46 l33 -5 1 86 1 85 -35 -4 -35 -4 7 35 c11 60
55 129 125 194 53 50 96 78 230 144 91 46 199 96 240 113 l75 29 -1 39 c0 23
-10 52 -23 71 l-22 31 33 2 c18 0 39 1 46 1 30 -1 -5 57 -53 87 -80 50 -209
46 -355 -11 -90 -34 -104 -47 -94 -84 4 -15 9 -23 13 -18 6 8 81 14 81 7 0 -7
-100 -54 -115 -54 -28 0 -75 55 -75 88 0 17 16 80 36 140 l35 110 31 -16 c30
-15 32 -14 57 17 24 29 50 44 36 21 -3 -5 -2 -10 3 -10 11 0 25 30 17 38 -3 3
-5 1 -5 -5 0 -17 -36 -8 -71 20 -30 23 -32 28 -19 41 17 16 91 40 170 55 30 6
64 13 75 15 49 9 210 5 279 -9z m1436 -15 c71 -20 100 -35 100 -49 0 -15 -74
-52 -94 -47 -21 5 -21 5 -1 -10 24 -18 26 -36 5 -46 -13 -6 -12 -7 2 -7 9 -1
18 -11 20 -23 3 -20 9 -23 43 -23 l40 0 0 -92 c0 -82 -2 -95 -22 -115 l-22
-22 -12 30 c-6 16 -15 39 -20 52 -18 47 -181 122 -265 122 -66 0 -134 -40
-134 -79 0 -10 39 -27 53 -23 4 1 5 -13 1 -33 -14 -76 17 -118 155 -210 102
-67 185 -141 175 -156 -3 -5 -16 -9 -29 -9 -32 0 -40 -16 -21 -43 9 -12 31
-43 49 -69 l33 -47 32 19 c30 18 32 18 40 2 44 -83 48 -249 11 -344 l-11 -28
-25 20 c-14 11 -29 20 -32 20 -3 0 -17 -22 -30 -50 -27 -58 -104 -138 -167
-175 -25 -14 -81 -35 -126 -47 -70 -17 -102 -20 -222 -15 -93 3 -165 11 -211
24 l-70 19 0 181 0 181 -28 26 c-37 35 -35 80 5 84 19 2 31 -4 45 -24 36 -53
127 -145 177 -178 90 -59 157 -63 205 -12 19 21 22 33 19 78 -2 40 1 57 14 70
12 12 18 13 22 5 2 -7 5 -3 5 8 0 11 -12 34 -27 51 -34 40 -302 228 -302 212
0 -6 -3 -8 -6 -5 -4 4 -15 -3 -25 -14 l-18 -21 -26 26 c-36 36 -83 141 -97
215 -17 93 1 231 43 318 66 138 214 238 407 273 77 14 258 4 342 -20z m2160 9
c135 -31 245 -118 303 -240 57 -119 59 -146 62 -569 3 -408 11 -510 55 -634
20 -59 25 -97 14 -109 -3 -3 -24 8 -47 24 l-40 29 -222 0 -221 0 -40 -30 c-21
-16 -45 -30 -51 -30 -20 0 -16 54 11 144 33 108 46 181 54 284 7 84 8 87 32
89 14 0 31 1 38 2 18 1 13 175 -5 177 -7 1 -24 2 -38 3 l-25 1 0 133 c0 88 -5
150 -14 182 -14 45 -14 47 5 52 10 3 19 10 19 15 0 6 7 7 16 4 29 -11 -8 35
-55 68 -36 26 -51 30 -130 34 -63 3 -104 0 -147 -13 -62 -17 -144 -60 -144
-74 0 -5 18 -20 40 -35 l40 -26 -4 -211 c-2 -115 -6 -212 -9 -215 -2 -3 -8 7
-11 23 -6 20 -10 23 -16 13 -7 -11 -11 -11 -24 -1 -14 12 -16 -1 -16 -138 l0
-151 38 0 38 0 16 -102 c9 -57 26 -132 38 -168 28 -88 22 -97 -38 -60 l-49 30
-209 0 -209 0 -53 -35 c-69 -45 -74 -33 -34 98 17 56 37 130 43 164 13 61 13
62 48 65 l36 3 0 125 c0 122 -9 194 -23 174 -4 -5 -14 -10 -24 -10 -18 -2 -24
86 -31 444 l-4 182 36 -2 36 -3 -3 50 c-1 28 -8 70 -15 94 -12 39 -18 45 -63
60 -55 18 -68 43 -32 63 30 17 479 25 521 9 39 -15 33 -35 -18 -62 -37 -20
-45 -29 -45 -52 0 -28 30 -51 38 -29 2 7 10 12 17 12 8 0 19 8 24 18 9 15 10
14 11 -7 0 -23 2 -22 34 15 91 105 288 160 446 123z m-1297 -23 c40 -9 33 -28
-22 -58 -46 -26 -49 -31 -65 -92 -22 -90 -21 -125 4 -125 11 -1 29 -1 41 -2
18 0 20 -5 15 -37 -3 -20 -7 -224 -8 -452 -2 -393 -1 -420 20 -515 12 -55 30
-126 41 -158 18 -52 19 -88 2 -87 -3 0 -24 12 -46 25 -39 24 -44 25 -259 25
l-219 0 -49 -30 c-43 -26 -49 -28 -55 -14 -3 10 -1 35 6 58 6 23 23 88 36 146
25 104 25 110 25 573 l0 467 40 0 c36 0 40 2 40 26 0 14 -7 56 -16 94 -14 64
-18 70 -65 103 -39 27 -47 37 -36 45 9 8 98 13 263 14 264 3 264 3 307 -6z
m-1886 -1218 c-3 -7 -5 -2 -5 12 0 14 2 19 5 13 2 -7 2 -19 0 -25z m428 -1388
c0 -18 -6 -26 -23 -28 -24 -4 -38 18 -28 44 3 9 15 14 28 12 17 -2 23 -10 23
-28z"/>
<path d="M12640 10931 c-106 -33 -180 -124 -209 -259 -16 -77 -16 -78 27 -78
l37 1 6 -115 c7 -134 11 -149 51 -252 34 -87 94 -163 145 -184 75 -32 159 -11
211 52 93 113 114 339 51 545 -22 75 -22 72 -9 64 19 -12 42 17 35 44 -7 31
-52 102 -63 99 -9 -2 -85 30 -92 40 -3 4 -19 17 -37 30 -33 23 -100 29 -153
13z"/>
<path d="M7510 11140 c-10 -6 -4 -8 21 -4 22 4 39 2 43 -5 4 -6 12 -11 18 -11
7 0 6 6 -2 15 -14 17 -57 20 -80 5z"/>
<path d="M7613 11143 c9 -2 23 -2 30 0 6 3 -1 5 -18 5 -16 0 -22 -2 -12 -5z"/>
<path d="M7674 11138 c-4 -6 -2 -14 4 -16 7 -2 10 -7 7 -12 -3 -4 4 -10 16
-13 15 -4 18 -2 10 7 -6 7 -8 16 -4 19 3 4 -2 7 -13 8 -18 0 -18 1 1 9 16 7
17 9 3 9 -9 1 -20 -4 -24 -11z"/>
<path d="M7468 11133 c7 -3 16 -2 19 1 4 3 -2 6 -13 5 -11 0 -14 -3 -6 -6z"/>
<path d="M7745 11130 c17 -4 39 -8 50 -8 16 0 15 2 -5 8 -14 4 -36 8 -50 8
-22 0 -22 -1 5 -8z"/>
<path d="M7400 11120 c-8 -5 -11 -12 -7 -17 5 -4 11 -3 15 3 4 6 14 14 22 17
13 5 13 5 0 6 -8 0 -22 -3 -30 -9z"/>
<path d="M7844 11090 c0 -10 6 -16 13 -13 7 3 13 9 13 13 0 4 -6 10 -13 13 -7
3 -13 -3 -13 -13z"/>
<path d="M7583 11093 c9 -2 23 -2 30 0 6 3 -1 5 -18 5 -16 0 -22 -2 -12 -5z"/>
<path d="M7883 11085 c0 -8 4 -12 9 -9 5 3 6 10 3 15 -9 13 -12 11 -12 -6z"/>
<path d="M7647 10326 c-23 -21 -53 -36 -78 -40 -47 -7 -57 -3 -70 31 -11 29
-33 26 -37 -6 -2 -15 0 -21 7 -17 6 4 11 2 11 -4 0 -6 4 -9 8 -6 21 12 31 -10
22 -49 -14 -58 -12 -100 6 -144 23 -58 55 -75 140 -77 40 -1 77 -5 83 -8 6 -4
11 -3 11 2 0 6 -7 12 -15 16 -12 4 -15 27 -15 116 0 99 7 129 24 101 4 -5 14
-8 24 -7 14 2 17 13 17 62 l0 59 -50 2 c-44 2 -54 -1 -88 -31z"/>
<path d="M7755 9991 c-2 -5 3 -15 12 -22 9 -8 14 -9 10 -2 -4 6 -2 13 5 15 8
3 6 7 -5 11 -9 3 -19 2 -22 -2z"/>
<path d="M8896 11141 c-4 -5 3 -7 14 -4 23 6 26 13 6 13 -8 0 -17 -4 -20 -9z"/>
<path d="M8946 11139 c2 -4 -2 -10 -8 -13 -7 -3 -2 -3 12 0 37 9 49 25 18 22
-15 -1 -25 -5 -22 -9z"/>
<path d="M9030 11140 c-12 -8 -12 -10 5 -10 11 0 27 5 35 10 12 8 12 10 -5 10
-11 0 -27 -5 -35 -10z"/>
<path d="M8848 11133 c6 -2 18 -2 25 0 6 3 1 5 -13 5 -14 0 -19 -2 -12 -5z"/>
<path d="M8770 11116 c0 -2 7 -7 16 -10 8 -3 12 -2 9 4 -6 10 -25 14 -25 6z"/>
<path d="M8729 11090 c-20 -17 -20 -19 -3 -9 24 14 68 4 45 -10 -9 -6 -8 -10
7 -13 26 -7 23 21 -5 39 -17 12 -23 11 -44 -7z"/>
<path d="M10127 14554 c-3 -3 22 -47 56 -96 34 -50 69 -101 78 -114 28 -43 32
-40 9 6 -12 25 -29 49 -37 53 -7 5 -11 13 -7 18 3 5 0 16 -6 24 -6 8 -8 20 -4
27 5 10 4 11 -7 1 -11 -11 -15 -7 -24 20 -6 17 -16 31 -22 30 -6 -1 -10 5 -9
14 1 17 -16 28 -27 17z"/>
<path d="M9408 14433 c-39 -54 -142 -192 -228 -308 -183 -245 -191 -259 -219
-345 -43 -130 -24 -269 47 -343 68 -72 183 -92 273 -49 25 12 140 103 255 203
115 99 214 183 221 186 6 2 67 -51 135 -119 128 -129 246 -218 329 -249 53
-20 84 -25 60 -10 -17 11 -25 67 -11 76 6 4 8 10 5 15 -3 6 12 13 35 16 22 4
38 9 36 12 -3 2 5 13 17 23 l22 19 -24 20 -23 20 23 0 c12 0 31 7 40 16 10 9
30 17 43 17 26 0 26 0 8 29 -9 16 -68 97 -129 179 -62 82 -113 152 -113 156 0
3 50 2 111 -2 l112 -7 -21 29 c-24 34 -52 59 -52 47 0 -4 -7 1 -16 12 -8 10
-13 12 -9 4 4 -10 2 -9 -8 3 -8 9 -19 17 -24 17 -13 0 -69 62 -162 179 -79 99
-180 191 -210 191 -10 0 -51 -11 -92 -25 l-74 -26 -136 56 c-75 30 -139 55
-143 55 -3 0 -38 -44 -78 -97z m162 -3 c0 -5 -4 -10 -10 -10 -5 0 -10 5 -10
10 0 6 5 10 10 10 6 0 10 -4 10 -10z"/>
<path d="M10523 14426 c4 -11 1 -13 -11 -9 -9 3 -14 3 -10 -2 4 -4 -4 -27 -18
-50 -15 -26 -20 -45 -14 -47 6 -2 -6 -23 -26 -46 -22 -26 -42 -41 -51 -38 -8
3 -11 1 -8 -4 7 -11 -8 -14 -19 -3 -3 4 -13 8 -21 9 -8 1 1 -20 24 -54 190
-282 259 -400 280 -478 10 -39 12 -40 48 -38 21 1 79 5 128 8 l90 6 -2 65 c-3
75 -40 194 -86 275 -25 44 -177 266 -264 385 -21 28 -48 43 -40 21z"/>
<path d="M7755 13390 c-49 -10 -121 -28 -160 -40 -91 -27 -174 -51 -202 -57
-13 -3 -20 -10 -17 -15 4 -6 -3 -8 -17 -4 -13 3 -18 3 -12 0 10 -4 10 -11 2
-26 -6 -11 -9 -20 -7 -21 2 -1 13 -8 26 -15 15 -9 28 -10 35 -4 7 6 23 10 37
10 24 0 201 37 310 66 83 22 110 34 110 50 0 7 8 16 19 19 14 3 17 11 14 31
-6 31 -13 31 -138 6z m-278 -156 c-3 -3 -12 -4 -19 -1 -8 3 -5 6 6 6 11 1 17
-2 13 -5z"/>
<path d="M7875 13330 c4 -6 11 -8 16 -5 14 9 11 15 -7 15 -8 0 -12 -5 -9 -10z"/>
<path d="M7288 13253 c6 -2 18 -2 25 0 6 3 1 5 -13 5 -14 0 -19 -2 -12 -5z"/>
<path d="M5970 13232 c0 -12 19 -26 26 -19 2 2 -2 10 -11 17 -9 8 -15 8 -15 2z"/>
<path d="M7270 13180 c-9 -6 -10 -10 -3 -10 6 0 15 5 18 10 8 12 4 12 -15 0z"/>
<path d="M15130 12686 c0 -2 7 -7 16 -10 8 -3 12 -2 9 4 -6 10 -25 14 -25 6z"/>
<path d="M15079 12133 c-13 -17 -13 -17 6 -3 11 8 22 16 24 17 2 2 0 3 -6 3
-6 0 -17 -8 -24 -17z"/>
<path d="M12565 8884 c-195 -20 -441 -65 -485 -90 -14 -7 -20 -13 -15 -14 6 0
3 -5 -5 -10 -17 -12 -10 -11 185 25 206 37 337 48 521 42 171 -5 274 -21 274
-44 0 -7 -4 -13 -9 -13 -11 0 -25 -57 -22 -87 1 -13 -3 -23 -9 -23 -5 0 -10
-10 -9 -22 0 -15 2 -18 6 -8 3 8 17 25 31 37 22 18 24 23 10 23 -10 0 -18 5
-18 10 0 7 7 7 20 0 18 -10 49 -8 118 6 12 2 22 11 22 19 0 8 5 15 12 15 6 0
3 7 -8 15 -27 21 -7 18 72 -9 129 -44 251 -120 319 -198 54 -64 112 -190 130
-283 l14 -80 -4 72 c-8 119 -65 250 -149 341 -117 127 -299 213 -547 258 -82
14 -374 26 -454 18z"/>
<path d="M3460 8865 c-7 -9 -8 -15 -2 -15 5 0 12 7 16 15 3 8 4 15 2 15 -2 0
-9 -7 -16 -15z"/>
<path d="M3775 8718 c-18 -8 -18 -8 3 -4 12 2 22 0 22 -5 0 -5 -8 -9 -18 -9
-11 0 -27 -8 -36 -19 -16 -18 -14 -21 61 -81 110 -89 198 -144 327 -205 175
-83 458 -164 572 -165 56 0 69 7 53 27 -9 10 -6 13 12 14 23 1 23 1 -3 12 -16
6 -28 16 -28 21 0 6 -45 21 -99 34 -280 65 -533 178 -791 352 -42 29 -60 35
-75 28z"/>
<path d="M13172 8610 c-48 -40 -126 -45 -166 -11 -18 16 -18 15 -1 -19 l18
-35 -22 19 c-11 11 -21 14 -21 8 0 -7 5 -12 10 -12 16 0 12 -93 -6 -118 -9
-13 -13 -30 -10 -39 8 -20 -38 -147 -63 -172 -11 -11 -34 -49 -51 -85 -18 -36
-37 -66 -44 -67 -39 -3 -57 -7 -63 -14 -5 -4 2 -4 15 -1 13 5 22 3 22 -3 0 -6
-5 -11 -12 -11 -6 0 -3 -7 8 -16 10 -8 12 -12 4 -8 -8 4 -4 -4 10 -17 14 -13
28 -21 31 -16 3 5 9 8 13 7 7 -1 73 82 130 163 16 23 37 66 48 97 10 30 20 60
22 65 2 6 7 20 11 32 4 12 13 24 21 27 8 3 14 14 14 23 0 10 7 29 16 41 8 12
12 22 8 22 -4 0 2 10 13 23 26 28 39 77 21 77 -8 1 -5 7 7 16 11 8 24 13 30
10 6 -2 11 5 11 15 0 11 0 19 -1 19 0 -1 -10 -9 -23 -20z m-371 -563 c-10 -9
-11 -8 -5 6 3 10 9 15 12 12 3 -3 0 -11 -7 -18z"/>
<path d="M12261 8454 c0 -11 3 -14 6 -6 3 7 2 16 -1 19 -3 4 -6 -2 -5 -13z"/>
<path d="M13887 8389 c4 -13 8 -18 11 -10 2 7 -1 18 -6 23 -8 8 -9 4 -5 -13z"/>
<path d="M12318 8343 c-10 -2 -18 -11 -18 -18 0 -11 6 -12 30 -4 16 6 52 9 80
7 27 -1 50 0 50 3 0 15 -100 23 -142 12z"/>
<path d="M12707 8316 c14 -71 -67 -140 -164 -140 -29 0 -53 -1 -53 -3 0 -1 18
-7 41 -13 60 -16 139 9 175 55 22 29 25 42 21 72 -4 20 -10 40 -15 45 -6 6 -8
-1 -5 -16z"/>
<path d="M12155 8315 c-5 -2 -35 -11 -67 -19 -49 -14 -55 -19 -51 -37 4 -13 8
-17 13 -9 4 6 33 19 66 29 32 10 60 24 62 30 4 11 -3 13 -23 6z"/>
<path d="M4750 8306 c0 -2 7 -6 15 -10 8 -3 15 -1 15 4 0 6 -7 10 -15 10 -8 0
-15 -2 -15 -4z"/>
<path d="M5836 8274 c-3 -9 -6 -33 -6 -54 l0 -38 69 -16 c37 -9 162 -38 277
-66 115 -28 322 -78 459 -111 368 -89 505 -122 760 -184 127 -31 408 -98 625
-150 217 -52 460 -110 540 -130 423 -104 485 -115 540 -100 17 5 21 4 12 -3
-11 -7 -10 -11 4 -16 9 -3 19 -4 22 -1 3 3 0 5 -6 5 -7 0 -11 6 -9 13 1 8 -8
11 -27 10 -22 -2 -26 1 -18 9 6 6 33 11 59 11 36 0 42 2 23 7 -14 4 -36 6 -50
4 l-25 -4 24 10 c13 6 22 12 20 14 -6 6 -1051 268 -1053 264 -28 -64 -96 -63
-96 1 l0 27 -462 113 c-906 221 -1656 401 -1672 401 -2 0 -7 -7 -10 -16z
m3231 -800 c-3 -3 -12 -4 -19 -1 -8 3 -5 6 6 6 11 1 17 -2 13 -5z"/>
<path d="M4780 8256 c0 -2 7 -7 16 -10 8 -3 12 -2 9 4 -6 10 -25 14 -25 6z"/>
<path d="M12051 8214 c0 -11 3 -14 6 -6 3 7 2 16 -1 19 -3 4 -6 -2 -5 -13z"/>
<path d="M5048 8213 c7 -3 16 -2 19 1 4 3 -2 6 -13 5 -11 0 -14 -3 -6 -6z"/>
<path d="M11874 8184 c-26 -27 -34 -44 -34 -72 l0 -37 19 40 c10 22 30 51 45
64 14 14 26 28 26 33 0 18 -24 6 -56 -28z"/>
<path d="M12341 8195 c1 -19 18 -51 18 -35 0 8 -4 22 -9 30 -5 8 -9 11 -9 5z"/>
<path d="M12072 8150 c0 -8 6 -31 13 -50 7 -19 13 -28 13 -20 0 8 -6 31 -13
50 -7 19 -13 28 -13 20z"/>
<path d="M12364 8115 c4 -16 12 -34 17 -40 5 -5 4 6 -2 25 -15 45 -24 54 -15
15z"/>
<path d="M13862 8047 c-17 -47 -15 -70 17 -171 l28 -88 22 52 c13 29 19 55 14
59 -5 3 -15 27 -22 53 -8 26 -16 46 -20 44 -3 -2 -7 12 -8 31 -3 50 -17 59
-31 20z"/>
<path d="M4228 8042 c11 -7 8 -11 -9 -15 -13 -4 -21 -9 -18 -12 3 -3 21 1 40
9 19 9 29 15 22 16 -6 0 -20 3 -30 6 -13 4 -14 3 -5 -4z"/>
<path d="M12858 7898 c7 -83 -4 -121 -49 -178 -23 -29 -38 -54 -35 -57 3 -4 6
-1 6 5 0 7 4 11 9 10 13 -4 60 52 77 91 17 41 18 116 0 156 -12 28 -13 27 -8
-27z"/>
<path d="M11745 7884 c23 -14 60 -19 158 -22 84 -3 127 -1 127 6 0 7 -51 12
-137 14 -76 2 -147 7 -158 12 -11 4 -6 -1 10 -10z"/>
<path d="M12198 7893 c-50 -4 -52 -6 -38 -38 7 -17 9 -17 9 -2 1 13 10 17 40
17 54 0 102 11 95 21 -5 9 -13 9 -106 2z"/>
<path d="M12433 7888 c2 -7 16 -53 31 -102 15 -48 29 -86 31 -84 3 2 -6 40
-20 84 -14 43 -25 83 -25 88 0 14 104 -4 113 -19 4 -8 15 -11 24 -8 12 5 14 3
8 -7 -5 -9 -4 -11 4 -6 20 13 -6 34 -62 51 -63 19 -111 20 -104 3z"/>
<path d="M4285 7844 c-93 -48 -151 -91 -221 -167 -56 -59 -113 -152 -129 -207
-4 -14 11 9 32 50 64 123 165 220 306 291 38 19 73 42 78 52 5 9 8 17 7 17 -2
0 -34 -16 -73 -36z"/>
<path d="M10731 7833 c-15 -59 -33 -165 -28 -169 2 -3 12 37 21 88 10 51 22
98 28 105 7 9 7 13 0 13 -6 0 -16 -17 -21 -37z"/>
<path d="M12171 7820 c0 -8 7 -31 15 -50 l14 -35 -6 35 c-7 40 -24 76 -23 50z"/>
<path d="M13701 7728 c0 -7 10 -46 22 -86 19 -63 29 -82 39 -69 5 6 -47 167
-54 167 -4 0 -8 -6 -7 -12z"/>
<path d="M12201 7720 c0 -8 4 -24 9 -35 5 -13 9 -14 9 -5 0 8 -4 24 -9 35 -5
13 -9 14 -9 5z"/>
<path d="M14324 7654 c-1 -13 1 -24 5 -24 9 0 12 38 3 44 -4 2 -8 -7 -8 -20z"/>
<path d="M11980 7647 c0 -18 -11 -40 -31 -59 -22 -23 -27 -34 -19 -42 8 -8 19
-2 41 22 30 33 36 65 19 92 -8 12 -10 9 -10 -13z"/>
<path d="M13612 7638 c-7 -7 -12 -18 -12 -25 0 -30 45 -163 55 -162 14 1 70
69 57 69 -6 0 -14 -5 -17 -11 -9 -13 -26 20 -50 90 -9 28 -18 51 -19 51 -1 0
-7 -5 -14 -12z"/>
<path d="M10711 7624 c0 -11 3 -14 6 -6 3 7 2 16 -1 19 -3 4 -6 -2 -5 -13z"/>
<path d="M6160 7609 c9 -19 67 -59 199 -138 102 -62 239 -151 303 -199 150
-111 322 -272 360 -337 17 -27 27 -42 24 -32 -8 25 -1 21 20 -10 15 -24 15
-26 1 -14 -15 12 -17 11 -17 -5 0 -14 -3 -16 -9 -6 -6 10 -17 4 -44 -23 -21
-21 -37 -41 -37 -45 0 -5 -6 -11 -12 -14 -7 -3 -3 -3 10 0 14 3 22 1 20 -6 -2
-6 16 -19 40 -29 23 -9 54 -29 69 -43 l26 -27 28 20 c19 13 26 25 22 37 -14
42 57 -57 95 -131 64 -129 102 -270 102 -385 0 -118 -57 -283 -134 -387 l-37
-50 50 53 c28 29 64 82 81 117 93 196 92 415 -3 640 -89 212 -288 456 -527
648 -180 145 -563 379 -591 361 -8 -5 -9 -3 -4 6 6 10 4 12 -7 7 -9 -3 -21 0
-28 6 -9 9 -9 6 0 -14z"/>
<path d="M10038 7508 l-478 -120 0 -55 c0 -52 1 -55 23 -49 12 3 232 58 490
123 435 109 467 119 467 139 0 33 -12 84 -19 83 -3 -1 -221 -56 -483 -121z"/>
<path d="M10712 7580 c0 -14 2 -19 5 -12 2 6 2 18 0 25 -3 6 -5 1 -5 -13z"/>
<path d="M13516 7540 c-26 -27 -50 -50 -54 -50 -4 -1 -25 -16 -46 -34 l-39
-34 23 -81 c12 -45 27 -81 33 -81 5 0 30 16 54 36 35 28 42 39 31 46 -9 7 -8
8 6 4 14 -5 30 4 58 31 21 20 38 43 38 51 0 21 -44 162 -51 162 -3 0 -27 -22
-53 -50z m-26 -54 c0 -3 -4 -8 -10 -11 -5 -3 -10 -1 -10 4 0 6 5 11 10 11 6 0
10 -2 10 -4z m12 -51 c3 -13 2 -22 -2 -20 -11 7 -20 45 -10 45 4 0 10 -11 12
-25z"/>
<path d="M10721 7534 c0 -11 3 -14 6 -6 3 7 2 16 -1 19 -3 4 -6 -2 -5 -13z"/>
<path d="M10928 7473 c6 -2 18 -2 25 0 6 3 1 5 -13 5 -14 0 -19 -2 -12 -5z"/>
<path d="M11824 7445 c62 -37 125 -48 224 -39 l87 8 -115 7 c-81 4 -131 13
-170 28 -70 27 -74 26 -26 -4z"/>
<path d="M10765 7430 c10 -11 20 -20 23 -20 3 0 -3 9 -13 20 -10 11 -20 20
-23 20 -3 0 3 -9 13 -20z"/>
<path d="M10586 7380 c4 -14 15 -43 25 -64 11 -22 19 -48 19 -58 0 -10 4 -18
10 -18 5 0 6 -7 3 -17 -5 -12 -3 -14 7 -8 9 5 11 4 6 -3 -10 -16 12 -54 26
-46 7 4 8 2 4 -5 -7 -11 13 -43 62 -98 10 -13 22 -23 24 -23 3 0 -5 33 -16 73
-17 58 -32 85 -75 135 -30 34 -64 83 -77 109 -13 27 -21 37 -18 23z"/>
<path d="M11898 7393 c7 -3 16 -2 19 1 4 3 -2 6 -13 5 -11 0 -14 -3 -6 -6z"/>
<path d="M13310 7374 c-19 -14 -41 -29 -48 -33 -10 -6 -8 -24 9 -89 12 -45 27
-82 33 -82 6 0 32 16 57 34 l46 34 -22 78 c-12 43 -26 79 -31 81 -5 1 -25 -9
-44 -23z"/>
<path d="M11848 7381 c15 -9 -29 -21 -82 -21 -48 0 -80 -11 -64 -22 8 -5 -5
-6 -31 -2 -27 4 -46 3 -50 -4 -3 -6 -58 -14 -121 -18 -63 -3 -123 -11 -134
-16 -14 -8 -17 -7 -11 2 6 10 -4 12 -43 8 -34 -3 -49 -1 -45 5 4 6 0 8 -10 4
-10 -4 -24 -10 -32 -13 -10 -4 -18 2 -24 17 l-10 24 0 -22 c-1 -13 -6 -23 -12
-23 -6 0 -8 9 -4 20 4 11 2 20 -4 20 -6 0 -11 -3 -11 -8 0 -4 -12 -15 -27 -24
-16 -10 -23 -18 -16 -18 7 0 10 -6 7 -13 -6 -16 -50 -14 -46 2 1 7 -15 11 -42
11 -35 0 -49 5 -61 23 l-17 22 7 -24 c5 -16 4 -21 -4 -17 -6 4 -11 14 -11 22
0 8 -5 14 -11 14 -6 0 -8 -7 -5 -16 5 -14 4 -15 -8 -5 -11 9 -16 9 -21 0 -6
-8 -10 -7 -16 2 -7 11 -9 9 -9 -6 1 -20 65 -75 104 -89 14 -5 17 -3 12 10 -5
14 -4 15 9 4 22 -18 208 -17 213 1 3 10 1 10 -8 -1 -10 -13 -11 -13 -7 0 2 8
10 15 18 16 30 2 34 5 21 13 -9 6 -5 8 15 9 15 0 49 3 74 7 39 6 50 4 67 -13
18 -18 24 -19 120 -6 55 7 108 17 119 22 48 26 103 44 116 39 20 -7 88 17 102
37 7 9 18 16 26 17 8 0 5 4 -6 9 -26 11 -44 12 -27 1z m-578 -91 c13 -8 13
-10 -2 -10 -9 0 -20 5 -23 10 -8 13 5 13 25 0z"/>
<path d="M5792 7315 c-17 -37 -14 -45 4 -12 9 16 14 31 11 33 -2 2 -9 -7 -15
-21z"/>
<path d="M4110 7300 c19 -11 42 -19 50 -19 8 0 -5 8 -29 19 -55 25 -67 25 -21
0z"/>
<path d="M13195 7292 c-16 -10 -17 -54 -2 -46 8 5 8 3 0 -7 -15 -15 -17 -33
-4 -25 5 3 11 0 14 -8 3 -8 -1 -17 -9 -20 -10 -4 -17 7 -25 39 -10 38 -13 42
-28 33 -16 -10 -16 -15 4 -84 12 -40 24 -76 27 -79 3 -3 26 8 51 25 l45 30
-25 75 c-25 75 -29 81 -48 67z"/>
<path d="M3907 7228 c6 -80 36 -194 44 -171 7 16 8 15 8 -4 1 -17 6 -21 22
-18 17 3 19 0 13 -18 -3 -12 -3 -19 1 -15 4 4 31 -13 59 -39 28 -25 65 -54 81
-64 17 -11 23 -19 15 -20 -11 0 107 -36 127 -39 1 0 0 7 -3 15 -4 8 -1 15 6
15 7 0 2 9 -11 19 -22 18 -25 18 -31 3 -6 -15 -7 -14 -7 2 -1 11 -9 28 -18 38
-15 17 -15 21 -3 29 11 8 10 9 -7 4 -13 -4 -37 2 -60 14 -35 20 -36 21 -8 14
17 -3 33 -10 36 -15 3 -5 21 0 40 11 l34 21 -45 -6 c-62 -8 -144 34 -173 89
-19 36 -19 39 -2 57 20 22 7 28 -14 8 -11 -11 -12 -9 -7 9 5 16 2 23 -14 28
-11 3 -20 14 -21 23 0 14 -2 13 -9 -3 -7 -17 -9 -17 -9 -2 -1 9 -5 17 -11 17
-5 0 -12 11 -16 25 -11 44 -21 27 -17 -27z"/>
<path d="M5439 7191 c-33 -34 -40 -62 -7 -32 21 20 49 28 117 33 19 2 36 9 39
16 3 9 -13 12 -58 12 -55 0 -65 -3 -91 -29z"/>
<path d="M6101 7219 c-1 -4 -8 -23 -16 -43 -8 -20 -13 -36 -10 -36 9 0 36 62
31 73 -2 7 -5 9 -5 6z"/>
<path d="M11397 7194 c-22 -29 -87 -48 -146 -41 -27 3 -38 2 -30 -4 21 -13 96
-11 132 5 31 13 74 52 66 60 -2 2 -12 -7 -22 -20z"/>
<path d="M5712 7133 c-12 -27 -37 -84 -57 -127 -19 -43 -35 -84 -35 -90 0 -13
46 84 79 167 13 31 27 60 32 63 5 3 41 -9 80 -27 52 -24 73 -29 81 -21 9 9 -8
20 -66 47 -42 19 -81 35 -85 35 -4 0 -17 -21 -29 -47z"/>
<path d="M10796 7103 c8 -27 19 -65 24 -85 11 -37 33 -68 51 -68 5 0 6 12 2
28 -4 15 -7 39 -7 55 1 15 -3 27 -8 27 -5 0 -6 5 -2 11 6 10 -52 79 -67 79 -5
0 -1 -21 7 -47z"/>
<path d="M11695 7104 c-22 -13 -58 -24 -80 -25 -26 -1 -32 -3 -16 -6 38 -7 84
5 116 32 37 30 32 30 -20 -1z"/>
<path d="M5140 7107 c0 -19 32 -82 61 -118 47 -60 206 -191 212 -176 3 8 -21
34 -57 63 -105 84 -157 137 -187 189 -16 28 -29 46 -29 42z"/>
<path d="M6005 6993 c-9 -21 -40 -92 -69 -158 -30 -66 -52 -122 -50 -124 6 -6
4 -9 69 139 32 74 62 139 66 144 8 10 61 -25 117 -77 38 -37 43 -21 6 23 -24
28 -105 90 -118 90 -4 0 -13 -17 -21 -37z"/>
<path d="M11235 6928 c2 -7 13 -45 25 -85 13 -47 26 -74 38 -77 47 -13 196
-36 272 -41 47 -3 114 -7 150 -10 55 -4 138 1 330 18 19 2 54 4 78 5 50 2 51
7 20 103 l-22 68 -60 -6 c-34 -3 -68 -9 -76 -12 -31 -14 -462 -4 -575 13 -60
9 -119 19 -130 22 -11 3 -28 8 -37 10 -12 4 -16 1 -13 -8z"/>
<path d="M12225 6926 c-33 -5 -61 -10 -62 -11 -5 -3 39 -150 47 -158 4 -4 37
0 74 9 54 14 66 20 61 33 -4 9 -16 41 -26 71 -11 30 -23 57 -27 60 -4 3 -34 2
-67 -4z"/>
<path d="M12360 6884 c0 -3 5 -25 11 -50 9 -33 16 -44 26 -40 8 3 16 6 19 6 2
0 -6 20 -18 45 -19 38 -38 58 -38 39z"/>
<path d="M4297 6863 c-12 -12 -7 -31 9 -37 14 -5 15 -4 5 8 -8 10 -9 16 -1 21
5 3 10 1 10 -4 0 -6 5 -11 11 -11 8 0 8 5 -1 15 -14 16 -23 19 -33 8z"/>
<path d="M4354 6806 c-9 -8 -7 -20 7 -47 10 -20 16 -39 14 -41 -3 -3 2 -5 10
-5 8 0 12 4 9 9 -9 15 3 8 29 -16 14 -13 23 -27 20 -30 -4 -3 3 -6 14 -6 11 0
31 -8 44 -19 39 -30 106 -61 134 -61 43 0 26 29 -25 45 -14 4 -31 16 -38 26
-7 11 -19 19 -27 19 -8 0 -19 9 -25 20 -6 11 -21 20 -34 20 -13 0 -27 8 -30
17 -6 15 -8 15 -16 3 -7 -11 -10 -11 -11 -2 -1 6 -2 18 -3 25 -1 6 -9 11 -19
9 -11 -2 -17 4 -18 15 0 16 -1 16 -9 -2 -7 -18 -8 -18 -11 6 -3 20 -7 23 -15
15z"/>
<path d="M6888 6783 c6 -2 18 -2 25 0 6 3 1 5 -13 5 -14 0 -19 -2 -12 -5z"/>
<path d="M4130 6770 c0 -14 51 -58 84 -74 43 -20 107 -21 132 0 18 15 18 15
-3 5 -48 -24 -127 -5 -178 43 -19 18 -35 30 -35 26z"/>
<path d="M13747 6743 c-4 -3 -7 -13 -7 -22 1 -13 3 -13 11 2 11 19 8 33 -4 20z"/>
<path d="M6070 6732 c0 -20 44 -74 81 -99 70 -46 186 -42 226 9 6 7 13 29 17
48 l6 35 -20 -33 c-20 -33 -71 -62 -108 -62 -48 0 -122 32 -161 70 -22 22 -41
37 -41 32z"/>
<path d="M6860 6730 c0 -5 5 -10 10 -10 6 0 10 5 10 10 0 6 -4 10 -10 10 -5 0
-10 -4 -10 -10z"/>
<path d="M5517 6693 c-9 -21 -45 -104 -81 -185 -36 -82 -62 -148 -58 -148 8 0
8 0 94 200 32 74 60 136 62 138 3 2 33 -17 67 -42 66 -48 79 -54 79 -33 -1 11
-106 92 -135 103 -7 3 -19 -10 -28 -33z"/>
<path d="M6867 6693 c-4 -6 -20 -13 -37 -16 -18 -4 -30 -13 -30 -22 0 -8 -4
-15 -10 -15 -5 0 -24 -16 -43 -35 -19 -19 -39 -35 -44 -35 -5 0 -20 -9 -33
-20 -13 -11 -28 -20 -34 -20 -6 0 -29 -12 -50 -26 -21 -14 -46 -24 -56 -21
-13 3 -17 0 -13 -9 7 -19 -44 -37 -84 -30 -23 3 -33 1 -33 -8 0 -7 -19 -19
-42 -26 -24 -7 -60 -19 -80 -26 -23 -8 -38 -10 -38 -4 0 6 -5 10 -11 10 -8 0
-10 -15 -5 -47 3 -25 7 -48 9 -49 1 -1 34 2 72 7 39 6 81 11 95 13 14 1 35 8
47 14 12 7 28 10 35 7 7 -3 37 15 66 39 52 42 56 43 115 41 75 -3 94 2 100 26
3 11 14 19 25 19 10 0 31 9 45 20 14 11 34 20 45 20 10 0 27 9 37 20 10 11 24
20 32 20 7 0 13 5 13 10 0 6 7 10 15 10 8 0 15 7 15 16 0 11 6 15 20 11 11 -3
18 -1 14 4 -3 5 -13 9 -23 9 -10 0 -35 11 -55 25 -20 13 -36 21 -36 17 -1 -4
-9 8 -19 27 -10 19 -21 29 -24 24z"/>
<path d="M5187 6644 c-21 -18 -40 -24 -73 -24 -38 0 -45 -3 -42 -17 8 -43 120
-16 138 33 14 36 10 37 -23 8z"/>
<path d="M4890 6618 c0 -22 56 -127 83 -157 26 -28 123 -101 134 -101 4 0 -10
15 -32 33 -71 58 -125 121 -155 181 -17 33 -30 52 -30 44z"/>
<path d="M5791 6509 c-10 -25 -45 -106 -87 -198 -14 -29 -23 -59 -21 -65 3 -6
10 1 16 17 9 24 41 39 41 19 0 -4 13 -9 30 -10 16 -1 40 -6 52 -11 13 -4 32
-5 43 0 14 5 16 8 5 9 -8 2 -18 2 -22 1 -9 -1 2 32 13 39 4 3 -17 5 -47 6 -38
0 -54 -4 -54 -13 0 -7 -4 -13 -9 -13 -14 0 -33 28 -23 34 5 3 21 39 37 81 15
41 32 78 38 82 20 12 108 -106 106 -142 -1 -17 -2 -17 -6 -2 -2 9 -8 17 -12
17 -6 0 -7 -22 -2 -75 l2 -20 8 20 c5 11 7 23 5 27 -3 4 0 9 6 13 31 19 -11
116 -78 179 l-31 29 -10 -24z"/>
<path d="M4380 6454 c0 -5 7 -18 15 -28 8 -11 15 -16 15 -10 0 5 -7 18 -15 28
-8 11 -15 16 -15 10z"/>
<path d="M4420 6406 c0 -3 9 -10 20 -16 11 -6 20 -8 20 -6 0 3 -9 10 -20 16
-11 6 -20 8 -20 6z"/>
<path d="M5855 6340 c-3 -5 -1 -10 4 -10 6 0 11 5 11 10 0 6 -2 10 -4 10 -3 0
-8 -4 -11 -10z"/>
<path d="M5860 6290 c0 -5 5 -10 10 -10 6 0 10 5 10 10 0 6 -4 10 -10 10 -5 0
-10 -4 -10 -10z"/>
<path d="M6185 6181 c-17 -25 -52 -59 -79 -76 -49 -29 -52 -30 -180 -29 -114
0 -141 4 -211 27 -92 31 -100 32 -83 13 7 -8 15 -14 18 -13 3 0 21 -7 40 -16
115 -51 296 -67 382 -34 49 19 121 88 139 134 17 44 6 42 -26 -6z"/>
<path d="M4426 5974 c-20 -47 -36 -90 -36 -94 0 -4 15 -17 32 -29 l33 -20 12
22 c16 28 16 50 2 41 -7 -4 -10 -1 -7 7 3 8 11 13 17 12 6 -2 10 0 9 5 -1 4 4
28 11 55 12 43 12 49 -4 67 -10 11 -21 20 -26 20 -4 0 -23 -39 -43 -86z"/>
<path d="M7506 5822 c-31 -64 -60 -104 -73 -100 -21 7 -74 -75 -128 -195 -31
-71 -55 -130 -52 -133 9 -9 129 135 121 147 -4 8 -3 9 4 5 7 -4 19 7 29 27 50
93 83 163 83 175 0 7 12 38 26 68 14 31 24 57 22 60 -3 2 -17 -22 -32 -54z"/>
<path d="M6874 5826 c11 -9 24 -16 30 -16 12 0 7 5 -24 19 -24 11 -24 11 -6
-3z"/>
<path d="M6539 5717 c16 -21 63 -47 83 -47 7 1 -3 8 -22 16 -19 8 -43 23 -55
32 -19 16 -19 16 -6 -1z"/>
<path d="M6152 5668 c16 -16 34 -28 41 -28 6 0 3 6 -8 12 -11 6 -29 18 -40 27
-12 9 -8 4 7 -11z"/>
<path d="M6653 5663 c9 -2 23 -2 30 0 6 3 -1 5 -18 5 -16 0 -22 -2 -12 -5z"/>
<path d="M6253 5623 c9 -2 23 -2 30 0 6 3 -1 5 -18 5 -16 0 -22 -2 -12 -5z"/>
<path d="M7246 5554 c-9 -8 -16 -12 -16 -9 0 4 -15 -2 -32 -13 -26 -17 -44
-46 -84 -136 -29 -64 -49 -116 -47 -116 12 0 114 62 110 67 -3 2 14 46 37 96
61 132 65 144 32 111z"/>
<path d="M5750 5420 c0 -5 -16 -42 -35 -81 -40 -83 -43 -99 -15 -99 15 0 26
13 41 48 11 26 29 64 40 85 25 49 24 57 -6 57 -14 0 -25 -4 -25 -10z"/>
<path d="M5818 5412 c11 -7 10 -10 -3 -16 -9 -3 -13 -10 -10 -16 3 -5 1 -10
-4 -10 -6 0 -11 -7 -11 -15 0 -14 -18 -53 -30 -65 -3 -3 -6 -9 -7 -15 -1 -5
-4 -17 -8 -27 -5 -12 1 -18 25 -23 17 -4 33 -5 34 -3 8 10 77 180 74 183 -2 1
-19 6 -38 9 -22 5 -30 4 -22 -2z"/>
<path d="M5890 5333 c-17 -38 -34 -76 -40 -85 -21 -37 -12 -45 62 -57 50 -8
74 -9 76 -1 5 14 33 13 30 -2 -2 -7 14 -15 37 -19 55 -11 125 -11 125 -1 0 5
7 9 14 9 8 0 14 -5 13 -11 -3 -17 298 -20 310 -3 11 13 83 181 83 192 0 11
-143 -4 -150 -16 -6 -8 -9 -8 -11 0 -3 7 -42 13 -99 15 -52 2 -132 7 -178 12
-48 4 -82 3 -81 -2 4 -14 -11 -54 -21 -54 -4 0 -6 -8 -3 -19 3 -10 0 -22 -5
-25 -21 -13 -22 15 -3 59 11 24 17 47 13 49 -7 4 -119 26 -134 26 -5 0 -22
-30 -38 -67z m137 -107 c-23 -23 -28 -20 -15 9 7 16 15 22 21 16 6 -6 4 -15
-6 -25z"/>
<path d="M6823 5378 c-19 -30 -91 -198 -85 -198 19 1 34 23 71 108 23 51 41
95 41 97 0 10 -19 4 -27 -7z"/>
<path d="M6653 5362 c-15 -9 -97 -191 -90 -199 3 -2 32 -1 64 3 32 4 51 9 41
11 -9 2 -19 11 -22 19 -3 8 -2 13 3 10 4 -3 8 11 9 32 0 20 9 58 21 85 19 43
19 47 3 47 -9 0 -22 -4 -29 -8z"/>
<path d="M13225 4970 c3 -5 11 -10 16 -10 6 0 7 5 4 10 -3 6 -11 10 -16 10 -6
0 -7 -4 -4 -10z"/>
<path d="M10580 4859 c-242 -17 -626 -81 -613 -102 3 -6 1 -7 -5 -4 -5 4 -21
3 -34 -2 l-23 -10 23 0 c12 -1 22 -5 22 -10 0 -4 -10 -7 -22 -6 -13 1 -15 0
-5 -2 9 -2 17 -8 17 -12 0 -5 60 3 133 16 303 54 437 67 712 67 203 0 284 -3
370 -17 61 -10 117 -20 125 -22 18 -6 27 -109 11 -120 -6 -3 -11 -12 -11 -18
0 -7 4 -6 10 3 7 12 12 12 22 2 10 -10 8 -14 -10 -18 -12 -4 -22 -10 -22 -15
0 -12 17 -11 25 1 3 6 11 10 17 10 7 0 6 -6 -2 -15 -7 -8 -18 -15 -25 -15 -6
0 -12 -7 -12 -15 0 -13 3 -13 16 -1 23 20 79 36 122 36 22 0 39 5 39 10 0 6 5
10 11 10 5 0 8 -4 5 -9 -3 -4 7 -6 22 -3 24 5 24 6 7 13 -15 6 -16 8 -4 8 9 1
22 8 29 16 10 13 9 15 -11 15 -20 0 -21 -2 -9 -11 12 -9 12 -10 1 -7 -24 7
-25 29 -1 35 22 6 21 6 -6 19 -55 24 2 14 91 -16 121 -41 226 -94 315 -161
216 -161 322 -354 340 -619 l7 -105 1 119 c2 144 -13 214 -72 341 -152 321
-518 534 -1036 599 -152 20 -415 27 -570 15z"/>
<path d="M12150 4710 c19 -13 30 -13 30 0 0 6 -10 10 -22 10 -19 0 -20 -2 -8
-10z"/>
<path d="M11256 4523 c-6 -14 -5 -15 5 -6 7 7 10 15 7 18 -3 3 -9 -2 -12 -12z"/>
<path d="M11242 4480 c0 -14 2 -19 5 -12 2 6 2 18 0 25 -3 6 -5 1 -5 -13z"/>
<path d="M11235 4439 c-4 -6 -5 -12 -2 -15 2 -3 7 2 10 11 7 17 1 20 -8 4z"/>
<path d="M11260 4428 c0 -9 5 -20 10 -23 13 -8 13 5 0 25 -8 13 -10 13 -10 -2z"/>
<path d="M11280 4393 c-14 -7 -19 -13 -12 -13 17 0 15 -48 -3 -66 -8 -8 -17
-31 -21 -52 -3 -20 -14 -51 -24 -69 -13 -22 -15 -33 -7 -36 9 -3 9 -7 1 -18
-6 -8 -14 -27 -17 -44 -6 -34 -45 -141 -77 -208 -17 -35 -28 -47 -48 -49 -20
-2 -28 -9 -31 -28 -1 -14 -8 -29 -15 -33 -8 -6 -8 -10 2 -14 18 -7 15 -31 -7
-59 -17 -22 -20 -23 -25 -7 -3 10 -4 2 -2 -17 2 -19 7 -44 11 -55 8 -18 7 -19
-8 -6 -9 7 -17 25 -18 40 0 16 -3 20 -6 11 -7 -17 -23 -30 -38 -30 -5 0 -4 4
3 9 11 7 10 10 -3 15 -9 3 -24 1 -33 -4 -14 -9 -12 -10 8 -4 14 3 22 3 18 -1
-9 -10 11 -37 21 -30 4 2 8 -2 8 -10 0 -8 -5 -11 -11 -8 -6 4 -3 -3 8 -15 10
-12 23 -19 27 -16 5 3 9 0 9 -6 0 -6 5 -8 10 -5 18 11 11 24 -10 20 -11 -2
-18 0 -15 5 3 5 18 7 33 4 15 -2 23 -1 17 3 -15 12 -14 52 2 46 7 -3 13 -1 13
4 0 10 21 36 75 95 14 15 25 30 25 33 0 13 37 54 44 48 3 -3 6 -1 6 5 0 7 6
12 14 12 16 0 56 76 56 106 0 11 9 30 20 42 12 12 29 41 40 64 24 53 42 81 56
90 6 4 10 23 8 43 -1 19 2 35 7 35 5 0 9 9 9 19 0 11 5 23 10 26 6 3 10 17 10
31 0 13 4 24 10 24 5 0 7 7 4 15 -4 8 1 17 10 21 9 3 16 17 16 29 0 22 -3 23
-78 22 -43 -1 -89 -8 -102 -14z m0 -127 c0 -8 -4 -18 -10 -21 -5 -3 -10 3 -10
14 0 12 5 21 10 21 6 0 10 -6 10 -14z m-207 -486 c-3 -11 -12 -20 -19 -20 -17
0 -18 7 -1 25 17 20 26 18 20 -5z"/>
<path d="M5700 4346 c0 -31 6 -34 13 -6 3 11 1 23 -4 26 -5 3 -9 -6 -9 -20z"/>
<path d="M10170 4326 c0 -22 24 -96 31 -96 4 0 2 21 -6 46 -13 43 -25 67 -25
50z"/>
<path d="M9803 4180 c6 -22 15 -40 20 -40 5 0 6 7 3 16 -3 9 -9 27 -12 40 -3
13 -10 24 -14 24 -4 0 -2 -18 3 -40z"/>
<path d="M6270 4180 c-12 -16 -19 -30 -16 -30 2 0 14 14 26 30 12 17 19 30 16
30 -2 0 -14 -13 -26 -30z"/>
<path d="M6200 4125 c-9 -11 -10 -19 -3 -26 13 -13 35 12 24 29 -6 10 -11 9
-21 -3z"/>
<path d="M6378 4109 c2 -16 7 -31 11 -34 4 -2 5 9 3 26 -2 16 -7 31 -11 34 -4
2 -5 -9 -3 -26z"/>
<path d="M6148 4103 c6 -2 18 -2 25 0 6 3 1 5 -13 5 -14 0 -19 -2 -12 -5z"/>
<path d="M10237 4093 c-4 -7 101 -392 110 -402 14 -18 5 28 -38 178 -27 95
-49 180 -49 188 0 12 18 14 110 11 61 -1 110 0 110 4 0 22 -231 42 -243 21z"/>
<path d="M10818 4026 c4 -53 2 -56 -40 -99 -67 -66 -185 -97 -263 -67 -39 15
-20 -9 21 -26 126 -53 314 38 314 153 0 27 -23 93 -33 93 -1 0 0 -24 1 -54z"/>
<path d="M6453 4063 c9 -2 23 -2 30 0 6 3 -1 5 -18 5 -16 0 -22 -2 -12 -5z"/>
<path d="M9955 4044 c-49 -14 -93 -28 -96 -32 -4 -4 13 -77 37 -162 49 -174
53 -185 59 -178 3 2 -13 67 -35 144 -22 76 -40 146 -40 155 0 11 22 22 79 37
43 12 86 22 95 22 19 0 19 31 1 36 -5 1 -50 -9 -100 -22z"/>
<path d="M9642 3904 c-65 -55 -90 -121 -62 -164 8 -12 10 -11 10 8 0 33 23 72
69 117 36 35 54 75 34 75 -5 0 -27 -17 -51 -36z"/>
<path d="M5533 3683 c-15 -5 -18 -33 -4 -33 5 0 11 9 14 20 3 11 4 20 4 19 -1
0 -8 -3 -14 -6z"/>
<path d="M11965 3634 c-40 -14 -40 -14 -5 -9 19 3 39 10 44 15 12 12 12 12
-39 -6z"/>
<path d="M10900 3636 c0 -2 8 -10 18 -17 15 -13 16 -12 3 4 -13 16 -21 21 -21
13z"/>
<path d="M11898 3613 c7 -3 16 -2 19 1 4 3 -2 6 -13 5 -11 0 -14 -3 -6 -6z"/>
<path d="M8016 3536 c-45 -97 -75 -211 -83 -315 -6 -85 9 -219 33 -279 8 -20
12 -26 9 -12 -3 14 -11 69 -17 122 -18 151 5 282 81 453 12 26 18 52 14 58 -3
5 -1 7 4 4 6 -4 14 0 17 9 3 8 2 12 -3 9 -5 -3 -11 3 -14 12 -2 11 -17 -11
-41 -61z"/>
<path d="M7795 3589 c-4 -6 -5 -12 -2 -15 2 -3 7 2 10 11 7 17 1 20 -8 4z"/>
<path d="M9380 3480 c55 -42 194 -69 362 -70 80 0 112 9 93 28 -3 4 -50 5
-103 4 -119 -4 -257 12 -325 38 -51 19 -51 19 -27 0z"/>
<path d="M11023 3402 c-1 -48 -3 -100 -5 -117 -3 -32 -18 -56 -30 -48 -4 2 -5
-3 -2 -11 8 -21 11 -20 28 7 29 44 45 129 34 188 -15 83 -23 77 -25 -19z"/>
<path d="M7737 3473 c-4 -3 -7 -11 -7 -17 0 -6 5 -5 12 2 6 6 9 14 7 17 -3 3
-9 2 -12 -2z"/>
<path d="M10048 3453 c-41 -5 -42 -6 -29 -49 5 -16 28 -96 51 -179 50 -182 71
-248 76 -242 4 4 -95 378 -111 418 -5 13 5 17 56 23 34 3 81 6 105 6 34 0 42
3 38 15 -6 15 -86 18 -186 8z"/>
<path d="M10410 3453 c1 -18 89 -316 96 -322 3 -3 4 3 1 14 -28 93 -68 277
-63 282 11 11 148 -16 190 -38 32 -17 37 -17 26 -4 -19 23 -66 46 -125 61 -55
15 -125 18 -125 7z"/>
<path d="M7713 3398 c0 -30 1 -30 10 -10 7 15 7 26 0 33 -6 6 -10 -1 -10 -23z"/>
<path d="M11871 3326 c-6 -8 -25 -19 -42 -26 -16 -7 -28 -15 -25 -17 6 -7 60
23 75 41 8 9 11 16 8 16 -2 0 -10 -6 -16 -14z"/>
<path d="M11768 3273 c7 -3 16 -2 19 1 4 3 -2 6 -13 5 -11 0 -14 -3 -6 -6z"/>
<path d="M9760 3125 c0 -36 -23 -77 -64 -113 -35 -30 -35 -32 -15 -43 18 -9
26 -6 51 18 39 36 61 87 53 124 -9 38 -25 47 -25 14z"/>
<path d="M8325 2923 c-16 -9 -61 -20 -100 -23 l-70 -7 63 -2 c46 -1 74 5 102
19 22 11 40 23 40 25 0 7 -1 6 -35 -12z"/>
<path d="M7980 2891 c0 -6 4 -13 10 -16 6 -3 7 1 4 9 -7 18 -14 21 -14 7z"/>
<path d="M9506 2851 c21 -16 64 -42 94 -57 53 -28 60 -29 195 -29 136 0 215 8
215 23 0 4 -75 7 -167 7 -180 0 -226 9 -322 61 -58 32 -64 30 -15 -5z"/>
<path d="M11834 2809 c-21 -17 -48 -37 -58 -45 -19 -13 -19 -16 12 -135 18
-67 34 -124 36 -127 3 -2 28 11 57 29 29 19 56 33 61 32 4 -2 7 2 6 9 -2 7 3
12 11 13 8 0 16 5 18 11 2 7 -4 11 -14 10 -14 -1 -24 21 -50 113 -18 62 -34
115 -36 117 -2 3 -21 -10 -43 -27z"/>
<path d="M8067 2751 c9 -14 27 -37 40 -51 13 -14 23 -28 23 -31 0 -4 29 -31
65 -60 54 -44 73 -53 108 -54 49 -2 87 -13 87 -25 0 -4 52 -6 116 -4 79 3 121
1 131 -7 11 -10 12 -8 7 7 -4 10 -3 16 1 12 5 -5 22 3 39 15 42 32 89 47 145
47 57 0 93 -18 102 -50 4 -15 7 -18 8 -8 1 9 6 20 13 24 7 5 8 3 3 -6 -6 -9 0
-11 21 -6 16 3 62 7 102 8 39 1 72 5 72 9 0 10 101 39 135 39 14 0 33 7 42 16
9 8 22 13 30 10 8 -3 11 -2 8 4 -6 10 58 25 72 17 14 -9 115 14 139 31 13 9
22 22 19 29 -2 6 1 14 8 17 7 2 0 5 -15 5 -15 1 -30 -4 -34 -10 -3 -6 -15 -8
-27 -5 -11 3 -34 -2 -51 -11 -21 -11 -31 -12 -34 -4 -5 16 -49 13 -56 -4 -3
-9 -18 -15 -36 -15 -17 0 -29 -4 -25 -9 3 -6 -7 -6 -27 0 -18 5 -48 9 -65 9
-29 0 -33 -3 -33 -25 l0 -25 -152 -1 c-84 -1 -182 -1 -217 1 -42 1 -66 -2 -71
-10 -6 -10 -14 -7 -31 9 -23 21 -69 29 -69 11 0 -5 -7 -10 -16 -10 -11 0 -14
5 -10 17 6 15 4 15 -14 -2 -22 -20 -28 -8 -7 15 9 11 8 11 -8 0 -11 -8 -23
-19 -27 -25 -17 -23 -6 10 14 44 l21 36 -29 -26 c-50 -45 -108 -69 -169 -69
-67 0 -90 10 -111 51 -12 25 -18 28 -30 18 -11 -9 -18 -8 -33 5 -15 13 -20 14
-24 4 -3 -10 -10 -10 -33 3 -16 8 -48 22 -72 29 -25 8 -41 18 -38 25 2 6 -2
12 -10 12 -11 0 -11 -5 3 -26z m233 -101 c0 -13 -1 -13 -10 0 -5 8 -10 22 -10
30 0 13 1 13 10 0 5 -8 10 -22 10 -30z m630 -30 c0 -5 -7 -7 -15 -4 -8 4 -15
8 -15 10 0 2 7 4 15 4 8 0 15 -4 15 -10z m-40 -10 c0 -5 -2 -10 -4 -10 -3 0
-8 5 -11 10 -3 6 -1 10 4 10 6 0 11 -4 11 -10z"/>
<path d="M9668 2743 c7 -3 16 -2 19 1 4 3 -2 6 -13 5 -11 0 -14 -3 -6 -6z"/>
<path d="M11640 2665 c-44 -29 -65 -49 -64 -62 2 -25 51 -213 58 -220 3 -3 30
11 60 31 30 20 62 39 70 42 21 8 20 23 -3 103 -11 36 -25 85 -31 109 -6 23
-14 42 -18 41 -4 0 -36 -20 -72 -44z"/>
<path d="M8297 2533 c21 -16 60 -17 69 -1 5 8 0 9 -14 6 -12 -4 -22 -3 -22 2
0 4 -11 7 -25 6 -23 -1 -24 -2 -8 -13z"/>
<path d="M8916 2494 c-37 -55 -161 -90 -233 -64 -26 9 -27 9 -9 -5 44 -34 133
-27 202 16 31 19 70 67 61 75 -2 3 -12 -7 -21 -22z"/>
<path d="M9370 2365 c-45 -46 -145 -67 -207 -45 -26 9 -27 9 -9 -5 28 -21 121
-19 171 4 22 10 51 30 64 45 31 33 15 33 -19 1z"/>
<path d="M11434 2377 c-3 -8 -1 -35 3 -62 l8 -47 23 18 c22 19 22 20 6 62 -17
43 -31 53 -40 29z"/>
<path d="M11548 2365 c-4 -16 -1 -25 8 -25 17 0 25 15 18 34 -9 24 -21 19 -26
-9z"/>
<path d="M10023 2062 c-27 -4 -28 -12 -9 -78 8 -27 22 -75 31 -108 15 -55 18
-58 43 -53 66 13 162 41 162 48 0 4 -8 14 -18 21 -10 7 -22 22 -26 33 -5 15
-9 16 -15 6 -6 -9 -10 -6 -15 13 -3 14 -11 26 -18 26 -13 0 -88 74 -88 88 0 9
-10 10 -47 4z"/>
<path d="M6935 15141 c6 -5 45 -23 88 -40 201 -80 359 -179 396 -249 12 -22
11 -23 -11 -22 -43 4 -43 -1 -3 -20 45 -22 59 -25 50 -10 -9 14 29 12 43 -2
15 -15 17 5 2 31 -15 29 -141 128 -232 181 -106 64 -369 167 -333 131z"/>
<path d="M5959 15073 l-24 -28 30 25 c17 14 32 26 34 28 2 1 0 2 -6 2 -5 0
-20 -12 -34 -27z"/>
<path d="M6623 14893 c-10 -10 -14 -15 -8 -12 5 4 24 11 40 17 24 8 26 11 9
11 -12 1 -30 -7 -41 -16z"/>
<path d="M6785 14887 c22 -8 42 -12 44 -10 9 7 -8 14 -45 19 l-39 4 40 -13z"/>
<path d="M6901 14847 c2 -2 22 -13 44 -25 l40 -23 -28 26 c-15 14 -35 25 -44
25 -9 0 -14 -1 -12 -3z"/>
<path d="M5867 14797 c7 -54 21 -90 31 -83 5 3 8 -5 8 -17 -1 -16 8 -25 33
-33 19 -6 29 -13 22 -15 -10 -4 -8 -9 5 -19 16 -13 17 -13 10 0 -5 10 -3 9 6
-2 10 -11 19 -14 29 -7 48 30 140 -18 108 -57 -9 -11 -7 -14 10 -14 14 0 20
-4 15 -11 -4 -7 0 -9 14 -5 11 4 23 2 27 -4 3 -5 15 -10 26 -10 10 0 27 -4 37
-10 29 -16 165 -53 194 -52 15 0 30 -3 33 -8 3 -5 13 -6 22 -3 10 4 14 2 10
-4 -4 -6 6 -10 23 -11 35 -1 40 13 8 22 -13 3 -45 20 -73 38 -27 17 -54 31
-60 29 -5 -1 -7 1 -3 4 4 4 3 16 -3 27 -10 19 -11 19 -24 2 -12 -17 -14 -17
-29 -1 -9 9 -33 19 -54 23 -20 4 -53 14 -72 22 -19 9 -42 17 -50 18 -8 2 -16
8 -18 14 -3 7 -9 7 -20 -2 -10 -7 -14 -8 -10 -4 11 13 -11 36 -34 36 -22 0
-50 24 -40 34 3 4 -1 4 -11 0 -24 -9 -83 4 -102 22 -9 10 -13 24 -9 36 6 21
-23 51 -40 41 -5 -4 -6 -1 -2 6 4 6 1 18 -7 26 -13 13 -14 9 -10 -28z"/>
<path d="M6514 14766 c30 -25 106 -70 106 -63 0 3 -30 23 -67 46 -38 23 -55
31 -39 17z"/>
<path d="M7326 14761 c5 -19 3 -23 -9 -18 -8 3 -23 -3 -33 -14 -9 -10 -13 -19
-8 -19 15 0 -89 -64 -158 -98 -40 -19 -68 -39 -68 -48 0 -8 4 -12 10 -9 5 3 7
0 4 -9 -3 -8 0 -25 7 -37 12 -23 12 -23 20 -4 4 11 8 14 8 8 1 -9 16 -6 49 10
26 12 49 24 52 27 3 3 21 14 41 24 19 10 57 38 85 62 27 24 52 44 56 44 4 0
12 9 18 20 9 17 7 22 -17 31 -15 5 -36 20 -46 32 l-18 22 7 -24z"/>
<path d="M7533 14756 c9 -14 24 -36 32 -49 23 -35 46 -107 55 -172 l9 -60 -3
76 c-2 60 -9 90 -33 142 -18 36 -41 71 -54 78 -23 12 -23 12 -6 -15z"/>
<path d="M7088 14698 c-22 -22 -63 -23 -101 -3 -21 10 -27 11 -25 2 6 -17 69
-36 101 -30 15 3 32 14 38 25 14 26 8 29 -13 6z"/>
<path d="M6690 14662 c0 -8 58 -32 76 -32 10 1 -56 39 -68 40 -5 0 -8 -4 -8
-8z"/>
<path d="M6515 14592 c-16 -10 -32 -18 -34 -19 -2 -2 -2 -6 2 -9 10 -10 47 7
57 27 6 10 9 19 8 18 -2 0 -16 -8 -33 -17z"/>
<path d="M6835 14578 c-6 -20 -35 -121 -35 -125 0 -2 13 -3 29 -3 39 0 86 37
70 56 -6 8 -17 14 -24 14 -8 0 -16 6 -18 13 -3 6 -6 1 -7 -13 0 -20 -2 -22
-10 -9 -5 9 -6 29 -1 45 7 29 8 29 19 7 7 -13 22 -27 33 -34 20 -10 20 -10 3
16 -22 33 -53 51 -59 33z"/>
<path d="M6000 14576 c0 -3 9 -10 20 -16 11 -6 20 -8 20 -6 0 3 -9 10 -20 16
-11 6 -20 8 -20 6z"/>
<path d="M6654 14522 c-10 -39 -10 -41 15 -47 14 -3 34 -8 44 -11 13 -4 17 1
17 24 0 25 -3 29 -27 27 -22 -1 -29 4 -33 24 -4 22 -6 20 -16 -17z"/>
<path d="M6078 14543 c7 -3 16 -2 19 1 4 3 -2 6 -13 5 -11 0 -14 -3 -6 -6z"/>
<path d="M7045 14446 c-34 -53 -77 -68 -177 -63 -100 5 -119 -7 -28 -18 107
-12 184 14 215 75 22 42 15 46 -10 6z"/>
<path d="M7611 14458 c0 -9 -4 -25 -7 -35 -5 -17 -5 -17 6 0 6 10 9 25 7 35
-4 15 -5 15 -6 0z"/>
<path d="M6620 14409 c0 -10 16 -15 47 -17 55 -3 49 13 -9 23 -29 6 -38 4 -38
-6z"/>
<path d="M6560 14360 c18 -12 60 -13 60 -2 0 4 -17 9 -37 10 -28 2 -34 0 -23
-8z"/>
<path d="M6715 14320 c11 -5 29 -9 40 -9 17 -1 17 1 5 9 -8 5 -26 9 -40 9 -23
0 -23 -1 -5 -9z"/>
<path d="M7421 14104 c0 -11 3 -14 6 -6 3 7 2 16 -1 19 -3 4 -6 -2 -5 -13z"/>
<path d="M6861 14034 c0 -11 3 -14 6 -6 3 7 2 16 -1 19 -3 4 -6 -2 -5 -13z"/>
</g>
</svg>
